<svg width="80" height="60" viewBox="0 0 80 60" fill="none" xmlns="http://www.w3.org/2000/svg">
<mask id="mask0" mask-type="alpha" maskUnits="userSpaceOnUse" x="0" y="0" width="80" height="60">
<path d="M0 0H80V60H0V0Z" fill="white"/>
</mask>
<g mask="url(#mask0)">
<path fill-rule="evenodd" clip-rule="evenodd" d="M18.0002 36.123C14.8322 35.59 12.8932 35.691 12.1802 36.426C11.1132 37.53 9.21116 38.976 7.54816 37.078C6.43816 35.813 7.01416 34.366 9.27416 32.738C7.68116 31.352 7.43916 29.988 8.54816 28.646C9.65716 27.304 11.2532 28.053 13.3362 30.893H18.0002V36.123Z" fill="#F5D6C3" stroke="#B24840"/>
<path fill-rule="evenodd" clip-rule="evenodd" d="M16 30.733C18.774 27.276 20.683 25.548 21.725 25.548C23.289 25.548 24.478 22.038 25.799 19.905C27.12 17.771 30.173 14.293 34.005 13.016C36.225 12.277 41.364 10.734 44.323 11.579C45.757 11.989 47.721 12.467 50.213 13.016C49.968 12.058 49.333 11.579 48.31 11.579C45.915 11.579 46.106 13.893 45.089 14.96C44.071 16.027 44.245 19.489 43.667 22.001C43.089 24.513 38.723 29.626 38.723 34.651C38.723 39.677 39.273 42.584 42.817 44.019C46.362 45.454 46.963 44.891 49.275 44.891C51.587 44.891 57 41.261 57 35.497C57 29.734 54.097 24.99 54.097 23.037C54.097 21.733 53.278 19.041 51.639 14.96C50.18 12.042 47.239 10.417 42.817 10.084C36.184 9.585 33.501 11.314 29.567 14.96C25.633 18.607 24.555 22.775 22.727 24.511C21.51 25.669 19.267 27.743 16 30.733Z" fill="#E7BAAB" stroke="#9F4639" stroke-linecap="round" stroke-linejoin="round"/>
<path fill-rule="evenodd" clip-rule="evenodd" d="M14.64 29.316C14.213 29.416 14 30.487 14 32.528C14 35.589 14.472 37.235 15.923 37.235C16.89 37.235 18.007 37.331 19.273 37.522C21.59 39.672 23.803 41.366 25.913 42.601C29.076 44.453 36.762 46 40.387 46H46.475C44.585 45.493 42.555 44.36 40.387 42.6C37.135 39.963 37.703 36.057 38.813 32.528C39.923 28.998 39.262 29.678 40.387 27.228C41.519 24.765 42.93 24.152 42.983 24.058C44.257 21.824 42.967 19.188 45.004 15.295C45.854 13.671 45.784 12.808 47.64 13.001C48.222 13.061 49.342 13.826 50.999 15.295C49.074 13.025 47.362 11.66 45.862 11.202C42.829 10.276 34.344 12.822 33.502 13.001C27.332 14.305 24.609 21.029 23.225 23.466C21.841 25.902 21.324 24.98 19.273 26.297C17.7227 27.2946 16.178 28.301 14.639 29.316H14.64Z" fill="#9F4639"/>
<path d="M49.5 33C50.3284 33 51 31.8807 51 30.5C51 29.1193 50.3284 28 49.5 28C48.6716 28 48 29.1193 48 30.5C48 31.8807 48.6716 33 49.5 33Z" fill="#F0E8E4" stroke="#9F4639"/>
<path d="M49.5 33C50.3284 33 51 31.8807 51 30.5C51 29.1193 50.3284 28 49.5 28C48.6716 28 48 29.1193 48 30.5C48 31.8807 48.6716 33 49.5 33Z" stroke="#FEE1D0" stroke-width="0.5"/>
<path fill-rule="evenodd" clip-rule="evenodd" d="M44.038 29.116C43.228 28.666 40.736 32.154 41.016 35.36C41.296 38.566 42.976 39.918 45.047 40.648C47.119 41.378 49.484 40.356 49.306 38.318C49.127 36.278 46.803 36.371 45.476 33.708C44.15 31.044 44.849 29.566 44.038 29.116ZM45.853 21.768C45.418 23.351 44.285 24.92 45.658 25.831C47.03 26.741 47.421 23.675 49.328 23.675C51.098 23.675 52.098 26.057 51.992 23.439C51.886 20.82 51.632 16 49.016 16C46.4 16 46.312 20.095 45.853 21.768Z" fill="#B04940" stroke="#782A22"/>
<path fill-rule="evenodd" clip-rule="evenodd" d="M53.505 28C52.669 28 53.745 32.765 52.719 34.853C51.694 36.941 51.829 39.126 52.719 38.994C53.609 38.863 55 37.842 55 34.854C55 31.864 54.34 28 53.505 28Z" fill="#B0493E" stroke="#772B21"/>
<path d="M38 23.445C35.599 22.852 33.357 22.852 31.274 23.445C29.192 24.037 26.1 25.555 22 28" stroke="#782A24"/>
<path fill-rule="evenodd" clip-rule="evenodd" d="M24 23C28.472 18.649 31.802 16.473 33.99 16.473C37.27 16.473 41 14.468 41 12.763C41 11.06 34.381 12.463 31.044 14.468C28.819 15.804 26.471 18.648 24 23Z" fill="#BB6351"/>
<path fill-rule="evenodd" clip-rule="evenodd" d="M24 28.764C26.71 26.92 29.262 26 31.657 26C35.249 26 34.088 28.232 32.292 28.764C30.495 29.295 29.072 28.764 27.166 28.764H24Z" fill="#BD6251"/>
<path fill-rule="evenodd" clip-rule="evenodd" d="M8.675 28.481C8.24 29.048 8.015 29.649 8 30.285C8.68 30.889 9.4 31.11 10.161 30.949C11.303 30.708 10.948 29.294 10.948 29.294L9.948 28.281C9.534 27.848 9.109 27.915 8.675 28.481Z" fill="#FDF6F3"/>
<path fill-rule="evenodd" clip-rule="evenodd" d="M8.00606 35.112C8.59406 35.806 9.29806 36.015 10.1181 35.74C11.3481 35.326 12.0601 34 12.7491 34H14.7971L15.0001 34.938C14.2231 34.928 13.3991 35.048 12.5291 35.301C11.3991 36.195 10.7861 37.431 9.11906 36.851C8.31906 36.577 7.94706 35.998 8.00606 35.112Z" fill="#BFA599"/>
<path fill-rule="evenodd" clip-rule="evenodd" d="M21 37.562C23.36 39.288 24.539 39.863 24.539 39.288V37.562C26.389 38.857 28.021 39.18 29.436 38.533C30.852 37.886 31.56 36.708 31.56 35C32.327 37.355 33.44 39.31 34.896 40.862C38.27 43.434 42.638 44.51 48 44.09C44.946 45.455 39.192 45.284 30.737 43.578C25.172 41.426 21.927 39.421 21 37.562Z" fill="#762C21"/>
<path d="M24 37C27.158 40.066 30.247 42.115 33.266 43.146C36.285 44.177 40.53 44.796 46 45" stroke="#4D1812"/>
<path fill-rule="evenodd" clip-rule="evenodd" d="M30 23C31.643 22.096 32.997 21.645 34.062 21.645C35.66 21.645 36.515 21.12 37.669 20.233C38.439 19.641 39.216 18.897 40 18C39.8 20.252 39.527 21.648 39.179 22.189C38.831 22.729 38.328 23 37.669 23H30Z" fill="#762B20"/>
<path fill-rule="evenodd" clip-rule="evenodd" d="M43.013 42.143C40.958 40.372 40 39.626 40 35.27C40.789 28.985 42.105 27.324 45.129 22.71C45.956 19.155 45.146 11.742 50.041 12.006C51.588 12.436 53.093 16.453 54.557 24.053C56.601 28.725 57.363 32.743 56.841 36.106C56.059 41.151 53.634 42.142 51.089 43.376C48.545 44.611 45.068 43.912 43.013 42.142V42.143Z" stroke="#FFE1D1"/>
<path fill-rule="evenodd" clip-rule="evenodd" d="M56.4942 45.84C53.5402 44.677 50.9182 42.712 49.9472 38.505C48.8472 33.736 49.4822 29.955 51.4392 24.619C51.4412 23.179 51.4542 20.249 51.4792 15.833C51.483 15.1577 51.7145 14.5035 52.1362 13.9762C52.558 13.4488 53.1453 13.0791 53.8032 12.927L55.9112 12.44C58.3192 11.884 61.1792 15.681 64.4892 23.831C67.9822 27.535 69.8572 31.137 70.1152 34.637C70.5022 39.887 70.8582 42.896 68.5972 44.724C66.3352 46.553 59.4472 47.002 56.4942 45.839V45.84Z" fill="#9F4639" stroke="#762C21"/>
<path fill-rule="evenodd" clip-rule="evenodd" d="M56.6392 43.956C54.2762 42.707 53.1922 42.202 52.2242 38.012C51.5842 31.792 52.4782 29.902 54.3522 24.794C54.3562 21.191 51.9322 14.24 56.6842 13.41C58.2632 13.482 60.5982 17.012 63.6882 24C66.8102 27.72 68.4951 31.255 68.7421 34.606C69.1122 39.633 69.6472 41.483 67.4822 43.234C65.3172 44.984 59.0022 45.204 56.6392 43.956Z" fill="#E7BAAB" stroke="#FFE1D1"/>
<path d="M61.6288 34.6616C62.436 34.4752 62.7758 32.9618 62.3878 31.2812C61.9998 29.6006 61.031 28.3893 60.2238 28.5757C59.4166 28.762 59.0767 30.2755 59.4647 31.956C59.8527 33.6366 60.8216 34.8479 61.6288 34.6616Z" fill="#EBDFDB" stroke="#9F4639"/>
<path d="M61.6288 34.6616C62.436 34.4752 62.7758 32.9618 62.3878 31.2812C61.9998 29.6006 61.031 28.3893 60.2238 28.5757C59.4166 28.762 59.0767 30.2755 59.4647 31.956C59.8527 33.6366 60.8216 34.8479 61.6288 34.6616Z" stroke="#FEE1D0" stroke-width="0.5"/>
<path fill-rule="evenodd" clip-rule="evenodd" d="M55.6181 31.257C54.7221 31.016 53.0211 34.917 53.9941 37.912C54.9671 40.906 56.9161 41.808 59.1181 42.027C61.3201 42.246 64.0761 41.898 63.4571 39.994C62.8381 38.09 59.9201 37.541 58.0341 35.306C56.1471 33.071 56.5151 31.499 55.6181 31.257ZM55.2821 23.131C55.1751 24.729 54.3391 26.481 55.9641 27.011C57.5891 27.541 57.3271 24.554 59.3101 24.096C61.1501 23.671 62.7101 25.678 62.0281 23.234C61.3481 20.79 60.0341 16.304 57.3151 16.932C54.5951 17.56 55.3951 21.443 55.2821 23.132V23.131Z" fill="#B04940" stroke="#782A22"/>
<path fill-rule="evenodd" clip-rule="evenodd" d="M64.195 27.659C63.343 27.856 65.501 32.199 64.92 34.456C64.34 36.712 65.335 40.347 66.214 40.011C67.093 39.674 67.914 36.803 67.247 33.919C66.582 31.035 65.047 27.462 64.195 27.659Z" fill="#B04940" stroke="#772B21"/>
</g>
</svg>
