<svg width="60" height="60" viewBox="0 0 60 60" fill="none" xmlns="http://www.w3.org/2000/svg">
<mask id="mask0" mask-type="alpha" maskUnits="userSpaceOnUse" x="0" y="0" width="60" height="60">
<path d="M0 0H60V60H0V0Z" fill="white"/>
</mask>
<g mask="url(#mask0)">
<path fill-rule="evenodd" clip-rule="evenodd" d="M15.5647 23.2746C11.4238 25.6492 8.93677 26.8887 7.65718 28.5504C6.3776 30.2121 4.21935 36.1606 4.45428 39.7203C4.61122 42.0935 5.13087 44.0942 6.01488 45.724L28.7284 46.2116L33.2402 41.1793" fill="#FFFAE7"/>
<path d="M15.5647 23.2746C11.4238 25.6492 8.93677 26.8887 7.65718 28.5504C6.3776 30.2121 4.21935 36.1606 4.45428 39.7203C4.61122 42.0935 5.13087 44.0942 6.01488 45.724L28.7284 46.2116L33.2402 41.1793" stroke="#844C22" stroke-linecap="round" stroke-linejoin="round"/>
<path d="M13.6732 34.1267C14.1119 32.5966 15.46 31.6409 16.6843 31.9919C17.9085 32.343 18.5453 33.8679 18.1065 35.3979C17.6678 36.9279 16.3197 37.8837 15.0955 37.5326C13.8713 37.1816 13.2345 35.6567 13.6732 34.1267Z" fill="#EABC20"/>
<path d="M22.2173 41.9737C22.3928 41.3616 23.0313 41.0077 23.6434 41.1832C24.2555 41.3587 24.6094 41.9972 24.4339 42.6093C24.2584 43.2214 23.6199 43.5754 23.0078 43.3999C22.3957 43.2243 22.0417 42.5858 22.2173 41.9737Z" fill="#F8C722"/>
<path fill-rule="evenodd" clip-rule="evenodd" d="M33.1457 41.509L33.9087 38.8482L16.7252 21.2085L14.4983 22.8794" fill="#E1CA7D"/>
<path d="M33.1457 41.509L33.9087 38.8482L16.7252 21.2085L14.4983 22.8794" stroke="#844C22" stroke-linecap="round" stroke-linejoin="round"/>
<path fill-rule="evenodd" clip-rule="evenodd" d="M6.07363 31.3483C7.2081 27.5915 8.75807 24.8672 10.7242 23.1766C12.6906 21.4851 14.3951 20.6818 15.8366 20.7664L14.8096 24.3481C13.2636 23.9963 11.667 24.4238 10.0208 25.6298C8.3746 26.8357 7.05921 28.742 6.07363 31.3483Z" fill="#C25E13" stroke="#844C22" stroke-linecap="round" stroke-linejoin="round"/>
<path fill-rule="evenodd" clip-rule="evenodd" d="M18.5952 42.2958C17.5455 42.6876 16.684 42.786 16.0121 42.5933C15.0028 42.3039 16.0919 41.7091 15.4184 40.8543C14.7471 39.9992 13.6276 40.3408 12.9634 40.1504C12.2982 39.9596 11.8203 39.1193 12.7249 38.4716C13.6304 37.8241 12.4404 38.2589 14.0089 39.207C15.5771 40.156 16.3015 38.8522 16.7571 39.995C17.2115 41.1386 16.2276 41.6169 17.01 41.8413C17.7925 42.0656 19.4377 41.0154 19.7185 41.8575C19.906 42.4189 19.5314 42.5643 18.5961 42.2961L18.5952 42.2958Z" fill="#4D5E62"/>
<path fill-rule="evenodd" clip-rule="evenodd" d="M26.0571 41.8753C26.2479 41.1737 25.9894 40.5514 25.282 40.0073C24.2222 39.1937 23.2587 39.9379 22.3398 39.6744C21.4218 39.4112 20.6092 39.2156 20.7542 38.71C20.8997 38.2025 21.8446 38.4588 22.7259 38.3277C23.6082 38.1968 25.9311 37.7435 25.7321 38.4375C25.5328 39.1325 25.6629 39.8107 26.5337 40.2133C27.4045 40.6159 27.1556 41.4839 27.0618 41.8107C26.9996 42.028 26.6644 42.0505 26.0569 41.8763L26.0571 41.8753Z" fill="#56828D"/>
<path fill-rule="evenodd" clip-rule="evenodd" d="M17.0958 30.5568C16.8926 31.2652 15.8309 30.9264 14.6087 31.0784C13.3852 31.2311 12.9738 29.6037 12.3675 29.9333C11.7604 30.2617 9.39796 32.5762 10.17 33.2397C10.9408 33.9039 12.5557 33.8301 11.3973 35.2103C11.1464 35.5087 10.4916 35.8005 9.43624 35.7986C8.37994 35.7963 7.37767 35.1667 7.52458 34.6543C7.6715 34.142 9.89902 35.0626 9.31569 34.1619C8.73111 33.2619 9.13552 30.5056 10.668 29.446C12.1994 28.3861 13.3831 30.2589 14.261 29.7439C15.139 29.229 14.4588 27.7554 15.4777 28.0476C16.4957 28.3395 16.3604 28.8114 16.157 29.5209C15.9538 30.2293 17.2989 29.8483 17.0958 30.5568Z" fill="#4D5E62"/>
<path fill-rule="evenodd" clip-rule="evenodd" d="M20.4397 32.4748C19.9169 32.1938 19.4392 32.1546 19.0015 32.3568C18.3453 32.6607 17.794 32.3049 17.872 32.0329L18.1391 31.1014C18.2678 30.6525 19.4426 30.3829 19.558 30.416C19.6733 30.4491 18.8432 31.1962 19.3839 31.4584C19.9234 31.7213 21.5964 31.5935 21.4354 32.1548C21.3285 32.5278 20.9962 32.6344 20.4397 32.4748Z" fill="#65A0AF"/>
<path fill-rule="evenodd" clip-rule="evenodd" d="M54 39.88C49.282 44.39 46.696 47.169 44.01 48.215C41.323 49.262 32.625 49.852 28 48.215C24.917 47.124 22.464 45.698 20.642 43.937L28.622 14.15L37 10.15" fill="#FFFAE7"/>
<path d="M54 39.88C49.282 44.39 46.696 47.169 44.01 48.215C41.323 49.262 32.625 49.852 28 48.215C24.917 47.124 22.464 45.698 20.642 43.937L28.622 14.15L37 10.15" stroke="#844C22" stroke-linecap="round" stroke-linejoin="round"/>
<path d="M37.5 38C39.433 38 41 36.433 41 34.5C41 32.567 39.433 31 37.5 31C35.567 31 34 32.567 34 34.5C34 36.433 35.567 38 37.5 38Z" fill="#EABC20"/>
<path d="M32 25C33.1046 25 34 24.1046 34 23C34 21.8954 33.1046 21 32 21C30.8954 21 30 21.8954 30 23C30 24.1046 30.8954 25 32 25Z" fill="#F8C722"/>
<path fill-rule="evenodd" clip-rule="evenodd" d="M36.963 10.21H40.643L56.888 37.848L53.936 40.018" fill="#E1CA7D"/>
<path d="M36.963 10.21H40.643L56.888 37.848L53.936 40.018" stroke="#844C22" stroke-linecap="round" stroke-linejoin="round"/>
<path fill-rule="evenodd" clip-rule="evenodd" d="M38.347 49.17C43.617 49.093 47.708 48.062 50.619 46.075C53.531 44.088 55.634 41.367 56.93 37.91L53.764 39.86C51.549 42.26 49.358 44.332 47.192 46.075C45.025 47.818 42.077 48.85 38.347 49.17Z" fill="#C25E13" stroke="#844C22" stroke-linecap="round" stroke-linejoin="round"/>
<path fill-rule="evenodd" clip-rule="evenodd" d="M29.344 29C28.404 30.187 27.934 31.24 27.934 32.16C27.934 33.54 29.167 32.38 30.066 33.54C30.966 34.7 30.066 35.99 30.066 36.9C30.066 37.81 31.022 38.72 32.256 37.81C33.489 36.9 32.433 38.247 31.756 35.92C31.078 33.593 33.132 33.15 31.756 32.16C30.379 31.17 29.344 32.24 29.344 31.17C29.344 30.1 31.414 28.4 30.379 27.74C29.689 27.3 29.344 27.72 29.344 29Z" fill="#4D5E62"/>
<path fill-rule="evenodd" clip-rule="evenodd" d="M32.733 19.24C33.852 19.253 34.663 19.807 35.167 20.9C35.922 22.54 34.411 23.49 34.411 24.75C34.411 26.01 34.355 27.11 35.167 27.11C35.977 27.11 36 25.82 36.567 24.75C37.133 23.68 38.789 20.9 37.677 20.9C36.567 20.9 35.619 20.49 35.393 19.24C35.167 17.99 33.778 17.99 33.255 17.99C32.907 17.99 32.733 18.406 32.733 19.24Z" fill="#56828D"/>
<path fill-rule="evenodd" clip-rule="evenodd" d="M45.1 34.37C44.1 34.37 44.145 36.02 43.489 37.7C42.833 39.38 44.8 40.63 44.145 41.36C43.489 42.09 39.588 44.51 39.011 43.14C38.433 41.77 39.133 39.5 36.9 40.586C36.417 40.821 35.792 41.635 35.4 43.14C35.008 44.645 35.456 46.33 36.178 46.33C36.9 46.33 36.533 42.78 37.488 43.98C38.444 45.18 42.189 45.73 44.145 43.98C46.1 42.23 44.1 39.78 45.1 38.74C46.1 37.7 47.767 39.27 47.767 37.7C47.767 36.13 47.1 36.13 46.1 36.13C45.1 36.13 46.1 34.37 45.1 34.37Z" fill="#4D5E62"/>
<path fill-rule="evenodd" clip-rule="evenodd" d="M42.578 29.74C42.822 30.513 42.641 31.143 42.033 31.63C41.123 32.36 41.489 33.2 42.033 33.2H43.9C44.8 33.2 45.922 31.79 45.922 31.63C45.922 31.47 44.099 32.26 43.9 31.47C43.7 30.68 44.823 28.58 43.7 28.58C42.952 28.58 42.578 28.966 42.578 29.74Z" fill="#65A0AF"/>
</g>
</svg>
