<svg width="60" height="60" viewBox="0 0 60 60" fill="none" xmlns="http://www.w3.org/2000/svg">
<mask id="mask0" mask-type="alpha" maskUnits="userSpaceOnUse" x="0" y="0" width="60" height="60">
<path d="M0 0H60V60H0V0Z" fill="white"/>
</mask>
<g mask="url(#mask0)">
<path fill-rule="evenodd" clip-rule="evenodd" d="M35.62 35.41C36.198 38.32 37.765 40.701 40.323 42.55C44.159 45.324 46.56 48.874 47.579 47.805C48.599 46.735 46.801 44.135 47.579 42.55C48.358 40.967 49.783 38.98 50.725 37.195C51.668 35.409 52.797 37.315 54.397 33.815C55.997 30.315 55.997 28.339 55.997 26.503C55.997 24.668 56.129 22.227 54.397 20.815C53.243 19.874 52.205 19.874 51.285 20.815C50.335 19.47 49.315 18.798 48.226 18.798C47.137 18.798 45.563 18.028 43.502 16.488C43.297 15.056 42.479 14.34 41.047 14.34C39.614 14.34 38.097 13.832 36.497 12.817C35.401 13.362 34.404 13.362 33.505 12.817C32.606 12.272 31.568 12 30.392 12L29 12.817C30.06 16.105 31.076 18.381 32.047 19.645C33.505 21.541 34.612 26.355 35.117 28.178C35.452 29.393 35.621 31.803 35.621 35.409L35.62 35.41Z" fill="#EECE92" stroke="#844C22"/>
<path fill-rule="evenodd" clip-rule="evenodd" d="M23.9272 18C21.7512 18.294 20.1182 18.625 19.0302 18.992C17.3982 19.543 14.2772 22.039 13.6662 22.991C13.0562 23.943 10.1462 28.915 9.36822 31.41C8.59122 33.905 6.20322 38.545 5.37022 39.919C4.53722 41.292 5.37022 42.524 5.37022 43.136C5.37022 43.746 10.8342 44.358 13.0002 43.746C14.4432 43.339 15.4652 43.136 16.0652 43.136C17.2942 43.944 18.5122 43.944 19.7192 43.136C20.9252 42.327 22.3292 41.646 23.9272 41.091C25.6302 41.471 26.9192 41.471 27.7922 41.091C28.6662 40.711 29.4322 39.985 30.0912 38.916C30.7212 38.976 31.7012 38.719 33.0342 38.145C34.3662 37.57 35.0222 36.618 34.9992 35.288L32.2672 30.158L23.9272 18Z" fill="#E5C388" stroke="#844C22"/>
<path opacity="0.483" fill-rule="evenodd" clip-rule="evenodd" d="M29.376 13.105L37.566 26.731C40.331 31.394 41.892 34.209 42.25 35.175C42.607 36.141 43.369 38.56 44.536 42.431L46.433 43L46.933 42.558L49.161 38.888C47.696 37.792 46.787 36.843 46.433 36.04C45.105 33.031 45.107 29.156 43.778 25.976C42.893 23.856 41.538 20.109 39.715 14.738C38.993 14.58 38.385 14.387 37.89 14.16C37.3954 13.9337 36.9244 13.659 36.484 13.34C36.024 13.568 35.464 13.682 34.8 13.682C33.805 13.682 33.473 13.105 31.742 12.669C31.628 12.64 31.229 12.594 30.544 12.529L29.376 13.105Z" fill="#D46917"/>
<path fill-rule="evenodd" clip-rule="evenodd" d="M47.66 42.361C47.515 43.064 47.83 44.828 47.916 45.298C48.034 45.943 48.366 47.732 47.531 48.609C42.57 45.652 40.036 42.968 39.071 41.774C38.334 40.864 36.043 36.28 35.486 35.303C29.8 25.316 28.426 24.703 27.719 23.468C26.804 21.872 25.231 19.678 23 16.887L23.876 14.924L24.149 14.312C25.123 15.217 25.856 15.217 26.346 14.312C26.837 13.406 27.776 13.315 29.055 12.68" fill="#F6EFE0"/>
<path d="M47.66 42.361C47.515 43.064 47.83 44.828 47.916 45.298C48.034 45.943 48.366 47.732 47.531 48.609C42.57 45.652 40.036 42.968 39.071 41.774C38.334 40.864 36.043 36.28 35.486 35.303C29.8 25.316 28.426 24.703 27.719 23.468C26.804 21.872 25.231 19.678 23 16.887L23.876 14.924L24.149 14.312C25.123 15.217 25.856 15.217 26.346 14.312C26.837 13.406 27.776 13.315 29.055 12.68" stroke="#844C22" stroke-linecap="round" stroke-linejoin="round"/>
<path fill-rule="evenodd" clip-rule="evenodd" d="M45.2173 18.263C45.9003 21.557 46.6223 24.024 47.3843 25.667C48.5273 28.131 48.5273 28.915 48.5273 31.797C48.5273 33.718 49.2773 35.2 50.7803 36.244C51.0933 36.064 51.2863 35.959 51.3603 35.927C51.8373 35.718 51.8653 35.769 51.8653 35.769C51.8653 35.769 50.0953 33.65 50.0953 31.797C50.0953 29.944 49.1803 27.052 48.5273 24.975C48.0923 23.59 47.5613 21.616 46.9363 19.055L45.2173 18.263Z" fill="#D17C35"/>
<path fill-rule="evenodd" clip-rule="evenodd" d="M41.0255 14.812C43.4505 19.929 44.8855 23.492 45.3315 25.5C46.0005 28.512 46.3865 30.458 47.2295 31.773C47.7925 32.649 48.7415 34.503 50.0775 37.333C50.2565 36.925 50.4425 36.619 50.6365 36.413C50.8305 36.207 51.0635 36.046 51.3365 35.929C49.7435 34.532 48.9465 33.147 48.9465 31.773C48.9465 29.712 49.2355 27.75 48.1705 26.167C47.4605 25.112 46.7365 23.213 46.0005 20.472L45.1695 18.333L43.0395 16.838C42.8835 15.591 42.4595 14.968 41.7665 14.968C41.0745 14.968 40.8265 14.915 41.0255 14.812Z" fill="#E7D5AF"/>
<path fill-rule="evenodd" clip-rule="evenodd" d="M47.771 19.226C48.569 22.11 49.294 24.491 49.946 26.371C50.924 29.191 50.36 31.275 50.924 32.221C51.299 32.852 51.806 33.778 52.444 35C54.131 31.301 54.974 28.938 54.974 27.911C54.974 26.371 55.462 22.761 54.516 21.654C54.158 21.236 53.506 20.647 52.776 20.647C52.147 20.647 51.641 20.983 51.257 21.654C50.447 20.377 49.737 19.655 49.128 19.488C48.519 19.321 48.067 19.234 47.771 19.226Z" fill="#E28F2A"/>
<path fill-rule="evenodd" clip-rule="evenodd" d="M5.50439 41.776L5.97439 42.83C8.42939 43.774 9.99539 44.066 10.6744 43.704C11.6944 43.162 15.6214 42.29 16.1194 42.29C16.6184 42.29 17.2684 42.83 18.4534 42.83C19.6374 42.83 22.0694 40.963 23.7754 40.285C25.4814 39.608 26.7114 41.067 27.8414 40.285C28.631 39.7335 29.369 39.1116 30.0464 38.427C31.1834 38.598 32.0324 38.403 32.5934 37.84C33.1554 37.277 33.7564 36.372 34.3964 35.125L33.1264 32.75C31.9294 33.215 30.9034 33.848 30.0464 34.647C29.1894 35.447 28.1924 36.21 27.0554 36.94C24.2784 37.725 22.1484 38.479 20.6634 39.201C18.4374 40.285 14.8594 40.285 13.6294 40.285C12.3994 40.285 10.0294 41.775 8.57839 41.775H5.50439V41.776Z" fill="#F0E0C1"/>
<path fill-rule="evenodd" clip-rule="evenodd" d="M10.3824 42.667C12.7954 42.545 14.4904 42.221 15.4654 41.695C16.4414 41.168 17.2784 40.905 17.9764 40.905C17.5714 40.905 17.5714 41.265 17.9764 41.985C18.5844 43.064 21.0394 40.905 21.6694 40.905C22.0894 40.905 22.9494 40.218 24.2484 38.842C24.9764 39.787 25.6224 40.259 26.1844 40.259C26.7474 40.259 27.8394 39.387 29.4604 37.644C31.0894 37.777 32.1324 37.571 32.5904 37.026C33.0494 36.48 33.6234 35.806 34.3134 35L35.0004 35.989C34.0954 37.222 33.2924 38.006 32.5904 38.34C31.8894 38.675 30.9754 38.759 29.8494 38.593C28.8024 40.326 27.9294 41.193 27.2314 41.193C26.5334 41.193 25.5394 41.097 24.2484 40.905C20.8704 42.632 18.7804 43.495 17.9764 43.495C17.1734 43.495 16.5014 43.219 15.9614 42.667C14.3864 43.219 13.3334 43.495 12.8044 43.495C12.0104 43.495 10.8944 43.539 10.3824 43.857C9.87043 44.176 6.80243 43.344 6.13743 43.064C5.69543 42.877 5.51743 42.421 5.60443 41.694L10.3824 42.667Z" fill="#F6BC7B"/>
<path fill-rule="evenodd" clip-rule="evenodd" d="M12 26.642V38.353C12 38.71 12.29 39 12.647 39C13.017 39 13.329 38.725 13.374 38.357C13.791 35.012 14 32.896 14 32.01V25L12 26.642Z" fill="#CB5E1B"/>
<path fill-rule="evenodd" clip-rule="evenodd" d="M21 19.603V37.467C21.054 38.177 21.22 38.177 21.5 37.467C21.92 36.402 22 30.374 22 28.535V19L21 19.603Z" fill="#B8490F"/>
<path fill-rule="evenodd" clip-rule="evenodd" d="M28.4671 25.527C28.4301 26.101 28.4271 26.453 28.4571 26.585C28.7401 27.856 28.6871 29.254 28.2991 30.779C27.8501 32.542 27.9071 33.949 28.4671 35C29.2013 34.6531 29.8852 34.2084 30.5001 33.678C31.0921 33.162 31.9261 32.764 33.0001 32.483C32.6514 31.9302 32.3284 31.3616 32.0321 30.779C31.7221 30.172 30.5341 28.422 28.4671 25.527Z" fill="#BC4606"/>
<path opacity="0.531" fill-rule="evenodd" clip-rule="evenodd" d="M18.082 22C16.104 23.275 15.115 24.278 15.115 25.01C15.115 26.107 16.599 26.408 16.599 27.816C16.599 29.224 14.493 30.291 15.115 31.826C15.529 32.848 16.005 34.239 16.541 36C18.696 33.754 19.773 32.026 19.773 30.815C19.773 29 17.403 30.185 18.083 29C18.761 27.816 20.647 26.447 19.773 25.01C19.191 24.052 19.191 23.049 19.773 22H18.083H18.082ZM10.688 34C8.23 37.34 7 39.227 7 39.661C7 40.313 10.065 39.986 10.688 39.01C11.104 38.358 11.104 36.689 10.688 34ZM24.064 23.052C23.422 23.562 25.53 27.7 24.797 29.669C24.064 31.638 23 33.616 23 34.529C23 35.444 26.936 34.965 26.936 33.616C26.936 32.266 28 28.319 28 27.121C28 25.924 24.705 22.541 24.064 23.052Z" fill="#E1AD4C"/>
<path fill-rule="evenodd" clip-rule="evenodd" d="M38.0644 20.983C37.7264 20.757 38.8284 17.497 38.8284 16.43C38.8284 15.718 39.2044 15.152 39.9574 14.73C41.0444 15.514 41.1964 16.434 40.4134 17.492C39.2394 19.078 38.4034 21.21 38.0644 20.983Z" fill="#EECE92"/>
<path fill-rule="evenodd" clip-rule="evenodd" d="M14.4434 28.851C14.2094 28.514 15.5414 28.158 15.9544 27.31C16.3684 26.462 19.2724 26.01 19.2924 27.358C19.3124 28.706 18.7804 28.172 17.0494 28.888C15.3184 29.605 14.6764 29.188 14.4434 28.851ZM16.5824 25.138C16.4074 24.886 17.4064 24.618 17.7164 23.982C18.0264 23.346 20.2044 23.008 20.2194 24.019C20.2344 25.029 19.8354 24.629 18.5374 25.166C17.2384 25.704 16.7574 25.391 16.5824 25.138ZM24.6874 19.997C22.9134 20.877 21.9154 21.494 21.6934 21.849C21.3614 22.379 20.6674 22.559 20.6734 23.939C20.6784 25.319 22.5304 25.182 23.3004 23.949C24.0704 22.717 22.1574 26.959 21.7164 27.663C21.2764 28.368 20.0794 28.525 20.6934 28.909C21.1034 29.165 21.8034 28.974 22.7964 28.338C22.0334 29.828 21.6784 30.846 21.7314 31.395C21.8114 32.218 22.8784 30.42 22.8784 30.42C22.8784 30.42 21.6004 32.5 21.7384 33.21C21.8314 33.683 22.9064 33.082 24.9624 31.408L24.9524 28.926L22.6844 29.676L24.3344 27.036L23.2914 26.385L27.6654 24.438L26.7604 23.032L25.8874 21.849L24.6874 19.997Z" fill="#EEE2C9"/>
<path opacity="0.294" fill-rule="evenodd" clip-rule="evenodd" d="M29 13C34.01 24.143 36.516 30.458 36.516 31.945C36.516 34.177 37.782 37.249 38.409 37.827C39.036 38.406 40.918 39.227 41.736 40.292C42.281 41.002 42.78 42.595 43.233 45.072L47.008 47.688C46.808 46.023 46.538 44.94 46.194 44.44C45.678 43.69 44.603 43.548 43.841 42.513C43.08 41.479 44.424 40.079 43.08 39.369C41.736 38.659 39.887 37.199 39.887 36.439V31.945C38.424 29.562 37.3 27.677 36.516 26.291L29 13Z" fill="#E5C586"/>
<path opacity="0.556" fill-rule="evenodd" clip-rule="evenodd" d="M7.11614 39.097C6.12414 39.887 5.79314 40.488 6.12414 40.899C6.62014 41.516 15.5211 39.097 16.2881 39.097C17.0541 39.097 18.0581 37.354 19.0731 37.354C20.0891 37.354 20.9231 38.902 22.2541 38.128C23.5851 37.354 25.5591 36.924 26.8231 36.023C27.6651 35.422 28.3911 34.283 29.0001 32.605L28.4361 30C27.2331 30.875 26.2211 31.743 25.4021 32.605C24.1721 33.897 21.7361 34.977 21.0701 35.5C20.4041 36.023 19.7391 33.72 20.4041 33.163C21.0701 32.605 19.6601 32.605 19.0741 32.605C18.4871 32.605 16.2881 34.116 16.2881 34.808C16.2881 35.5 17.1341 33.291 16.2881 32.605C15.4411 31.919 14.7881 33.594 13.3781 34.808C11.9671 36.023 10.3321 37.158 9.17014 38.128C8.39514 38.774 7.71014 39.098 7.11614 39.098V39.097Z" fill="#DD932F"/>
</g>
</svg>
