<svg width="60" height="60" viewBox="0 0 60 60" fill="none" xmlns="http://www.w3.org/2000/svg">
<mask id="mask0" mask-type="alpha" maskUnits="userSpaceOnUse" x="0" y="0" width="60" height="60">
<path d="M0 0H60V60H0V0Z" fill="white"/>
</mask>
<g mask="url(#mask0)">
<path fill-rule="evenodd" clip-rule="evenodd" d="M38.3955 48.3442C33.6543 48.7015 20.2615 43.8365 15.3971 37.8434C10.5318 31.8508 9.15533 26.9233 12.475 22.0419C15.7946 17.1605 23.3244 17.8116 27.7468 19.6844C32.1692 21.5571 43.9336 32.3682 45.5461 37.8371C47.1587 43.306 43.1372 47.9877 38.3955 48.3442V48.3442Z" stroke="#CA6C2E" stroke-width="0.9"/>
<path fill-rule="evenodd" clip-rule="evenodd" d="M10.6028 24.8314C11.1082 29.7158 12.6819 33.3883 15.3286 35.8486C19.2966 39.5397 31.9342 47.4668 39.0536 44.9416C46.1734 42.4151 44.5172 37.3088 43.3735 35.2456C42.6114 33.8707 39.9153 30.3847 35.2843 24.7859C44.343 33.255 48.4605 39.3054 47.6369 42.937C45.3557 50.1744 38.2404 50.5557 32.2377 48.7197C26.2345 46.8828 20.9056 43.251 15.2918 38.0677C11.5487 34.611 9.98685 30.199 10.6028 24.8314Z" fill="#CA6C2E"/>
<path fill-rule="evenodd" clip-rule="evenodd" d="M15.2034 34.5755C17.6202 37.2525 29.7561 45.054 34.45 45.2694C41.6481 46.1638 43.7273 42.5222 44.1653 39.8841C44.6032 37.246 40.7757 31.8798 37.002 28.0193C33.2269 24.1585 26.2751 17.9618 20.772 18.2876C15.2677 18.613 12.533 21.5981 11.8895 25.0246C11.2452 28.4517 12.7873 31.8959 15.2029 34.5747L15.2034 34.5755Z" fill="#F79E98" stroke="#FED8CC" stroke-width="1.8"/>
<path d="M14.3509 21.5499C15.6337 22.8122 16.3152 24.6274 16.3953 26.9955C16.4745 29.3641 15.923 31.3826 14.7384 33.0511" stroke="#FED8CC" stroke-width="0.9"/>
<path d="M21.7271 32.4687C19.9642 33.7912 19.4725 35.1545 20.2521 36.5609C21.4214 38.6705 24.9629 41.6478 27.3043 41.4556C29.6443 41.263 34.4936 37.4705 35.3831 36.9774C35.9761 36.6487 36.6558 35.9793 37.4217 34.9705M15.0233 21.6412C20.604 21.0803 24.4234 22.2983 26.4824 25.2971C28.5423 28.2954 29.6336 30.6231 29.7569 32.279L15.0233 21.6412Z" stroke="#FFD9CC" stroke-width="0.9"/>
<path d="M33.7979 31.7164C35.3322 32.3329 36.5814 33.5098 37.5442 35.2468C38.9889 37.8532 38.9812 39.5451 39.1483 41.3687C39.2645 42.6018 39.6389 43.7967 40.2472 44.8756" stroke="#FED8CC" stroke-width="0.9"/>
<path d="M32.7259 33.7123C33.8205 33.1055 34.2157 31.726 33.6087 30.6309C33.0017 29.5359 31.6224 29.14 30.5278 29.7467C29.4332 30.3535 29.038 31.733 29.645 32.8281C30.252 33.9231 31.6313 34.319 32.7259 33.7123Z" fill="#F79E98" stroke="#FED8CC" stroke-width="0.9"/>
<path d="M22.2482 22.2646L21.2985 20.5512L20.2241 18.6131" stroke="#FED8CC" stroke-width="0.9"/>
<path fill-rule="evenodd" clip-rule="evenodd" d="M39.1082 50.346C34.3242 50.126 18.2502 43.216 14.1292 36.646C10.0092 30.076 10.3792 24.533 14.3032 20.066C18.2272 15.599 25.8352 17.461 30.0242 19.866C34.2142 22.271 45.9162 36.032 46.8512 41.684C47.7862 47.336 43.8912 50.565 39.1082 50.346V50.346Z" stroke="#782A24" stroke-width="0.9"/>
<path fill-rule="evenodd" clip-rule="evenodd" d="M37.4433 43.668C33.1233 41.716 23.7683 31.154 22.4193 23.685C21.0693 16.216 22.2543 11.325 27.5243 8.711C32.7943 6.097 39.0643 10.245 42.0243 13.961C44.9843 17.678 50.0323 32.575 48.7913 38.044C47.5503 43.514 41.7633 45.62 37.4433 43.668V43.668Z" stroke="#CA6C2E" stroke-width="0.9"/>
<path fill-rule="evenodd" clip-rule="evenodd" d="M24.5345 10.217C22.6085 14.656 22.2045 18.563 23.3265 21.938C25.0075 27.001 32.2175 39.836 39.6685 41.057C47.1205 42.277 48.1475 37.099 48.1475 34.782C48.1475 33.237 47.4795 28.956 46.1435 21.938C49.9605 33.532 50.6285 40.694 48.1475 43.423C42.6435 48.557 36.2355 45.495 31.8755 41.057C27.5155 36.618 24.6155 30.958 22.2185 23.827C20.6205 19.074 21.3935 14.537 24.5345 10.217Z" fill="#CA6C2E"/>
<path fill-rule="evenodd" clip-rule="evenodd" d="M23.8344 20.784C24.6504 24.237 31.4824 36.724 35.4834 39.146C41.3454 43.344 44.9294 41.205 46.5914 39.146C48.2534 37.086 47.5074 30.651 46.0784 25.535C44.6484 20.418 41.5724 11.779 36.6014 9.438C31.6294 7.096 27.7904 8.359 25.5664 10.998C23.3414 13.635 23.0204 17.33 23.8344 20.783V20.784Z" fill="#F79E98" stroke="#FED8CC" stroke-width="1.8"/>
<path d="M28.9552 9.674C29.4662 11.369 29.1822 13.254 28.1042 15.328C27.0252 17.402 25.5642 18.874 23.7192 19.744" stroke="#FED8CC" stroke-width="0.9"/>
<path d="M30.6182 22.152C28.4352 22.448 27.3442 23.386 27.3442 24.966C27.3442 27.336 28.9982 31.583 31.1392 32.532C33.2792 33.482 39.3592 32.532 40.3762 32.532C41.0542 32.532 41.9732 32.282 43.1322 31.779M30.0632 9.674C35.2152 11.85 37.9652 14.717 38.3132 18.275C38.6602 21.834 38.4862 24.355 37.7912 25.837L30.0632 9.674Z" stroke="#FFD9CC" stroke-width="0.9"/>
<path d="M40.7705 27.5C41.8145 28.761 42.3355 30.368 42.3355 32.32C42.3355 35.248 41.5085 36.699 40.7705 38.345C40.2746 39.4585 40.0226 40.6651 40.0315 41.884" stroke="#FED8CC" stroke-width="0.9"/>
<path d="M39.5785 28.391C40.83 28.391 41.8445 27.3935 41.8445 26.163C41.8445 24.9325 40.83 23.935 39.5785 23.935C38.327 23.935 37.3125 24.9325 37.3125 26.163C37.3125 27.3935 38.327 28.391 39.5785 28.391Z" fill="#F79E98" stroke="#FED8CC" stroke-width="0.9"/>
<path d="M35.5005 13.777V11.852V9.674" stroke="#FED8CC" stroke-width="0.9"/>
<path fill-rule="evenodd" clip-rule="evenodd" d="M39.8323 46.939C35.5123 44.987 22.7953 30.557 21.4463 23.088C20.0963 15.618 22.4983 10.728 27.7693 8.114C33.0393 5.5 39.3493 9.977 42.3093 13.694C45.2693 17.41 50.9213 34.179 49.6803 39.648C48.4403 45.118 44.1523 48.891 39.8323 46.939V46.939Z" stroke="#782A24" stroke-width="0.9"/>
</g>
</svg>
