<svg width="59" height="59" viewBox="0 0 59 59" fill="none" xmlns="http://www.w3.org/2000/svg">
<mask id="mask0" mask-type="alpha" maskUnits="userSpaceOnUse" x="0" y="0" width="59" height="59">
<path d="M0 -1.52588e-05H59V59H0V-1.52588e-05Z" fill="white"/>
</mask>
<g mask="url(#mask0)">
<path fill-rule="evenodd" clip-rule="evenodd" d="M50 40.88C45.282 45.39 41.58 48.169 38.894 49.215C36.208 50.262 30.332 50.262 21.267 49.215L18 40.88L24.622 15.15L33 11.15" fill="#FFE166"/>
<path d="M50 40.88C45.282 45.39 41.58 48.169 38.894 49.215C36.208 50.262 30.332 50.262 21.267 49.215L18 40.88L24.622 15.15L33 11.15" stroke="#844C22" stroke-linecap="round" stroke-linejoin="round"/>
<path d="M33.5 39C35.433 39 37 37.433 37 35.5C37 33.567 35.433 32 33.5 32C31.567 32 30 33.567 30 35.5C30 37.433 31.567 39 33.5 39Z" fill="#EABC20"/>
<path d="M25 26C26.1046 26 27 25.1046 27 24C27 22.8954 26.1046 22 25 22C23.8954 22 23 22.8954 23 24C23 25.1046 23.8954 26 25 26Z" fill="#F8C722"/>
<path fill-rule="evenodd" clip-rule="evenodd" d="M3.34401 39.184V47.422L12 50.712V41.102L3.34401 39.184Z" fill="#FFF4E2" stroke="#844C22" stroke-linecap="round" stroke-linejoin="round"/>
<path fill-rule="evenodd" clip-rule="evenodd" d="M3.302 38.848L11.907 36.697L20.165 38.847L11.907 41L3.302 38.848Z" fill="white" stroke="#844C22" stroke-linecap="round" stroke-linejoin="round"/>
<path d="M12 26V38.8" stroke="#844C22" stroke-linecap="round" stroke-linejoin="round"/>
<path fill-rule="evenodd" clip-rule="evenodd" d="M12 40.992L20 39V47.613L12 50.595V40.992Z" fill="#FCE589" stroke="#844C22" stroke-linecap="round" stroke-linejoin="round"/>
<path d="M12 31C13.6569 31 15 29.6568 15 28C15 26.3431 13.6569 25 12 25C10.3431 25 9 26.3431 9 28C9 29.6568 10.3431 31 12 31Z" fill="#E94343" stroke="#844C22"/>
<path fill-rule="evenodd" clip-rule="evenodd" d="M33.355 11.21H36.644L52.267 38.85L49.755 40.87" fill="#EABC20"/>
<path d="M33.355 11.21H36.644L52.267 38.85L49.755 40.87" stroke="#844C22"/>
</g>
</svg>
