<svg width="79" height="47" viewBox="0 0 79 47" fill="none" xmlns="http://www.w3.org/2000/svg">
<path fill-rule="evenodd" clip-rule="evenodd" d="M38.1521 42.1715C27.3435 40.3299 20.5935 37.9356 17.8978 34.9873C13.8558 30.5662 10.6614 22.8888 16.0829 14.5399C21.503 6.19242 28.4358 3.45274 38.1521 1.43564C47.8684 -0.580085 58.3101 2.07393 62.0609 4.55386C65.8117 7.0338 68.3754 7.31288 70.3126 12.9442C71.6041 16.6979 70.8127 22.169 67.9413 29.3587L38.1521 42.1715Z" fill="#F5F2EC" stroke="#A14638"/>
<path fill-rule="evenodd" clip-rule="evenodd" d="M38.758 42.1715C37.2961 39.6004 36.5652 37.2033 36.5652 34.9804C36.5652 31.648 38.1095 23.8614 45.8034 17.6112C53.4973 11.3609 63.1381 8.96939 68.6626 11.231C71.6632 12.3114 71.6632 18.342 68.6626 29.3214L38.758 42.1715Z" fill="#F6E4AD" stroke="#782A24"/>
<path fill-rule="evenodd" clip-rule="evenodd" d="M13.2087 24.211C15.2723 29.5411 19.0314 32.8762 24.4844 34.215C29.9361 35.5551 33.6759 36.2597 35.7038 36.3302C36.1984 38.0129 36.6477 39.3199 37.0543 40.2497C37.461 41.1809 37.755 41.8206 37.9391 42.1715C30.123 40.8908 24.3924 39.1942 20.7446 37.0804C17.0969 34.9679 14.5854 30.6781 13.2087 24.211Z" fill="#E1DBD4"/>
<path fill-rule="evenodd" clip-rule="evenodd" d="M24.3195 7.63202C23.2946 9.19735 24.1354 10.1976 26.842 10.6342C30.902 11.2877 35.7505 8.70412 37.9776 10.6342C40.2047 12.5643 35.9222 13.9583 37.9776 15.4918C39.3474 16.5142 42.539 16.5142 47.5565 15.4918C42.6833 19.9225 39.4917 23.6114 37.9776 26.5555C36.4636 29.501 35.6062 32.8638 35.4056 36.6452C28.466 36.6369 23.3386 35.5261 20.0247 33.31C16.7108 31.0954 14.4507 28.2673 13.2458 24.8299C12.9916 22.3431 14.0578 19.229 16.4443 15.4904C18.8321 11.7533 21.4563 9.1338 24.3195 7.63202Z" fill="#DDD9CF"/>
<path fill-rule="evenodd" clip-rule="evenodd" d="M38.1782 42.1715C27.3586 40.3298 20.6004 37.9356 17.902 34.9873C13.8558 30.5635 10.6601 22.8819 16.0857 14.5316C21.5126 6.18136 28.4509 3.44031 38.1782 1.42458C43.7013 0.277871 53.0165 0.294449 60.1361 3.34498C65.5534 5.66465 69.1119 8.97491 70.3717 12.9345C71.5698 16.7048 70.7798 22.1773 67.9976 29.356L38.1782 42.1715Z" stroke="#782A24"/>
<path fill-rule="evenodd" clip-rule="evenodd" d="M36.5652 3.48729C43.9967 4.25407 49.1255 5.26953 51.9503 6.53367C54.7751 7.79643 57.1753 9.08407 59.1496 10.3952C59.6799 10.0526 60.5139 9.88124 61.6542 9.88124H65.4174C61.2819 7.56847 57.6314 5.9244 54.4673 4.949C51.2991 3.97499 45.3322 3.48729 36.5652 3.48729Z" fill="#FFFCFF"/>
<path fill-rule="evenodd" clip-rule="evenodd" d="M45.6289 36.9588C42.73 40.0729 47.9303 40.9101 54.6528 41.9836C61.3754 43.0571 70.2426 39.3641 74.646 34.9196C79.0508 30.4737 78.6001 22.8294 74.646 22.8294C70.6932 22.8294 48.5279 33.8447 45.6289 36.9588Z" fill="#F6E4AD" stroke="#782A24"/>
<path fill-rule="evenodd" clip-rule="evenodd" d="M46.1826 39.7538C52.4477 45.298 59.8118 47.329 68.2751 45.8465C76.7384 44.3668 79.9397 37.7601 77.8802 26.0264C76.9088 31.1092 75.4387 34.4319 73.4685 35.9945C70.5132 38.3376 68.7959 40.4888 61.1171 41.9629C55.9965 42.9452 51.0188 42.2088 46.1826 39.7538Z" fill="#ECE9E1" stroke="#782A24" stroke-linecap="round" stroke-linejoin="round"/>
<path fill-rule="evenodd" clip-rule="evenodd" d="M61.9249 36.6452C59.9218 37.9894 59.4217 39.1334 60.4219 40.0784C61.9249 41.4973 64.0435 40.6766 64.0435 38.6623C64.0435 37.318 63.3373 36.6466 61.9249 36.6466V36.6452ZM56.1572 36.6452C54.6185 37.5667 54.106 38.0268 54.6185 38.0268H58.5478L56.1572 36.6452Z" fill="#C6B79B"/>
<path fill-rule="evenodd" clip-rule="evenodd" d="M13.195 26.9741C14.0921 26.0526 12.6316 25.5925 8.81767 25.5925C5.00368 25.5925 2.34654 26.9562 0.843475 29.682C4.42939 30.2968 8.17193 32.0873 12.0683 35.0564C14.1182 35.5648 15.7642 35.5648 17.0062 35.0564C16.7302 33.7275 16.1237 32.4907 15.2435 31.4615C14.3669 30.4391 13.6854 28.9443 13.1963 26.9741H13.195Z" fill="#74B606" stroke="#782A24"/>
<path fill-rule="evenodd" clip-rule="evenodd" d="M16.8166 35.5192C12.4888 34.95 9.80689 35.3299 8.77233 36.6604C7.7364 37.9895 6.01077 40.0798 3.59131 42.93C8.09225 44.8007 11.2852 45.2828 13.1647 44.3765C15.9868 43.017 15.8233 46.3162 19.1165 46.3162C21.3107 46.3162 22.3768 45.1875 22.315 42.93C23.5213 43.8943 24.6506 44.3765 25.7017 44.3765C26.7527 44.3765 27.1388 43.0834 26.8599 40.4957C24.3827 40.1309 22.4538 39.4001 21.0744 38.3045C19.7461 37.2417 18.3199 36.3091 16.8152 35.5192H16.8166Z" fill="#95CE3D" stroke="#782A24"/>
<path fill-rule="evenodd" clip-rule="evenodd" d="M4.80035 42.6191C8.96743 39.5576 11.8032 38.0268 13.3104 38.0268C14.8162 38.0268 17.3469 38.3404 20.9026 38.969L22.6544 39.9527C18.1658 39.0339 15.0511 38.7065 13.3104 38.969C11.5683 39.2329 8.73249 40.4501 4.80035 42.6191ZM1.97009 29.0659C6.93816 27.7741 10.0487 27.5516 11.2962 28.3985C12.5465 29.2455 13.1922 29.6323 13.2389 29.5563L14.0935 31.083C13.065 30.5571 12.028 30.0482 10.983 29.5563C9.39197 28.7951 6.3886 28.6307 1.97009 29.0659Z" fill="#609F06"/>
</svg>
