<svg width="60" height="60" viewBox="0 0 60 60" fill="none" xmlns="http://www.w3.org/2000/svg">
<mask id="mask0" mask-type="alpha" maskUnits="userSpaceOnUse" x="0" y="0" width="60" height="60">
<path d="M0 0H60V60H0V0Z" fill="white"/>
</mask>
<g mask="url(#mask0)">
<path fill-rule="evenodd" clip-rule="evenodd" d="M48.0699 47.205C43.9769 49.868 35.4889 47.795 32.1279 42.201C28.7659 36.607 30.2059 27.981 34.8439 25.195C37.9359 23.337 40.5739 24.568 42.7559 28.889L44.3709 31.578L48.5309 29.079C51.7209 25.375 54.1919 24.979 55.9419 27.892C57.6919 30.805 56.1539 32.752 51.3269 33.733L47.1669 36.232L49.7309 40.498C51.3509 43.194 50.7969 45.43 48.0689 47.205H48.0699Z" fill="#FACA92" stroke="#782A24"/>
<path fill-rule="evenodd" clip-rule="evenodd" d="M50.44 44.155C49.872 44.497 45.234 41.411 42.037 36.09C38.84 30.77 37.734 25.694 38.919 24.981C39.709 24.507 41.404 26.656 44.003 31.428C43.703 32.273 43.92 33.304 44.65 34.52C45.381 35.736 46.168 36.374 47.01 36.434C50.087 41.106 51.23 43.68 50.44 44.155Z" fill="#B14840" stroke="#782A24"/>
<path fill-rule="evenodd" clip-rule="evenodd" d="M46.8698 37.203L50.0118 35.79C49.0338 35.171 48.1928 34.277 47.4918 33.11C46.8045 31.9821 46.3584 30.724 46.1818 29.415L43.4188 31.457C42.6528 33.127 42.6708 34.483 43.4718 35.525C44.2738 36.566 45.4068 37.125 46.8708 37.203H46.8698Z" fill="#EBCDB7" stroke="#83362E" stroke-linecap="round" stroke-linejoin="round"/>
<path fill-rule="evenodd" clip-rule="evenodd" d="M31.5859 40.14C31.3829 37.636 32.4059 35.324 34.6539 33.202C36.9019 31.08 38.3369 30.218 38.9579 30.616C38.4639 29.169 38.1659 27.992 38.0629 27.085C37.9609 26.178 38.0889 25.39 38.4479 24.72C35.8229 24.542 33.6259 26.09 31.8539 29.363C30.4109 33.153 30.3209 36.746 31.5859 40.14ZM33.5039 43.51C36.9199 46.76 40.3999 47.83 43.9439 46.722C45.7189 46.095 47.0619 44.982 47.9729 43.382C48.3629 43.704 48.7729 43.989 49.2039 44.237C49.6339 44.485 49.8969 44.586 49.9899 44.539C48.6469 46.959 46.0449 48.137 42.1819 48.074C39.2219 47.606 36.3299 46.085 33.5039 43.511V43.51Z" fill="#D29678"/>
<path fill-rule="evenodd" clip-rule="evenodd" d="M32.238 41.648C34.607 42.178 36.413 42.226 37.656 41.791C39.52 41.138 39.501 40.681 40.733 40.689C41.964 40.697 42.529 40.855 42.82 42.257C43.112 43.658 41.99 44.699 38.96 44.577C36.26 44.627 34.02 43.651 32.238 41.648Z" fill="#FFEFC8"/>
<path fill-rule="evenodd" clip-rule="evenodd" d="M48.603 34.024C50.055 33.12 51.229 32.56 52.124 32.342C53.467 32.016 56.37 30.747 54.89 28.283C53.41 25.82 51.444 28.666 49.985 29.543L47.109 31.271L46.915 30.594C47.442 30.184 48.117 29.731 48.941 29.237C49.198 28.992 53.035 23.804 55.504 27.914C57.217 30.766 55.772 32.554 51.169 33.281L49.074 34.541L48.603 34.024Z" fill="#D29678"/>
<path opacity="0.599" fill-rule="evenodd" clip-rule="evenodd" d="M51.607 31.108C52.202 31.474 54.908 30.881 54.293 29.494C53.678 28.106 52.252 29.084 51.723 29.751C51.193 30.418 51.013 30.741 51.607 31.108Z" fill="#FFEFC8"/>
<path opacity="0.522" fill-rule="evenodd" clip-rule="evenodd" d="M50.2058 42.944C46.7988 40.934 44.2798 38.572 42.6498 35.859C40.2038 31.789 39.9388 26.247 39.9838 25.931C40.0048 25.781 40.6208 26.506 41.7478 28.252C42.0538 28.726 42.5898 29.618 43.3558 30.928C42.2348 32.708 42.1378 34.268 43.0638 35.61C44.0298 37.009 45.3948 37.662 47.1598 37.568C47.6658 38.148 48.2038 38.94 48.7728 39.944C49.3227 40.9079 49.8016 41.9105 50.2058 42.944Z" fill="#782A24"/>
<path fill-rule="evenodd" clip-rule="evenodd" d="M44.7419 36.097C45.5819 36.421 46.3289 36.387 46.9839 35.993C47.6379 35.6 48.0869 35.246 48.3309 34.931L49.1069 35.693C48.0469 36.287 47.2239 36.647 46.6389 36.773C46.0539 36.899 45.4219 36.674 44.7419 36.097ZM43.5099 34.715C43.7189 33.684 44.1099 32.931 44.6849 32.455C45.2589 31.98 45.7999 31.718 46.3069 31.668L45.8599 30.196C44.7899 30.759 44.0219 31.359 43.5549 31.996C43.0889 32.635 43.0739 33.541 43.5089 34.715H43.5099Z" fill="#D1A686"/>
<path fill-rule="evenodd" clip-rule="evenodd" d="M8.01595 29.276C7.81295 23.616 14.946 16.414 22.516 16.414C30.086 16.414 37.803 23 37.803 29.276C37.803 33.46 35.003 35.346 29.403 34.936H25.763V40.564C27.541 45.95 26.458 48.643 22.516 48.643C18.574 48.643 17.556 45.95 19.466 40.563V34.935H13.692C10.044 34.935 8.15195 33.049 8.01595 29.275V29.276Z" fill="#FACA92" stroke="#782A24"/>
<path fill-rule="evenodd" clip-rule="evenodd" d="M9.63184 33.455C9.63184 32.686 15.4718 29.919 22.6718 29.919C29.8718 29.919 35.5798 31.851 35.5798 33.455C35.5798 34.525 32.4308 34.925 26.1328 34.658C25.4708 33.856 24.3178 33.455 22.6718 33.455C21.0258 33.455 19.9218 33.856 19.3588 34.658C12.8738 34.926 9.63184 34.525 9.63184 33.455Z" fill="#B14840" stroke="#782A24"/>
<path fill-rule="evenodd" clip-rule="evenodd" d="M18.6778 34.06L18.2048 38.027C19.4048 37.424 20.7958 37.123 22.3758 37.123C23.9558 37.123 25.4418 37.424 26.8328 38.027L26.4528 34.06C25.2498 32.3 23.8908 31.508 22.3758 31.683C20.8618 31.858 19.6288 32.651 18.6778 34.06Z" fill="#EBCDB7" stroke="#83362E" stroke-linecap="round" stroke-linejoin="round"/>
<path fill-rule="evenodd" clip-rule="evenodd" d="M24.8889 17.107C27.4989 18.401 29.1889 20.799 29.9549 24.302C30.7219 27.806 30.7219 29.748 29.9549 30.127C31.6889 30.501 33.0369 30.907 33.9999 31.347C34.9629 31.787 35.6699 32.386 36.1219 33.142C37.8669 30.639 37.6409 27.529 35.4439 23.812C32.5379 20.112 29.0189 17.877 24.8889 17.107ZM20.3919 17C15.1189 18.456 11.9759 21.277 10.9609 25.462C10.5239 27.602 10.8279 29.602 11.8749 31.464C11.3209 31.66 10.7929 31.898 10.2889 32.177C9.78491 32.457 9.52891 32.657 9.51891 32.779C7.91591 29.998 8.29891 26.706 10.6689 22.902C12.9029 20.239 16.1429 18.272 20.3919 17Z" fill="#D29678"/>
<path fill-rule="evenodd" clip-rule="evenodd" d="M22.9999 16.854C21.0569 18.893 19.9299 20.66 19.6209 22.156C19.1569 24.4 19.6209 24.654 18.8779 25.874C18.1349 27.094 17.6399 27.56 16.0719 27.013C14.5039 26.466 14.1399 24.727 16.0719 21.789C17.6339 19.073 19.9439 17.429 22.9999 16.854Z" fill="#FFEFC8"/>
<path fill-rule="evenodd" clip-rule="evenodd" d="M20.803 37.681C20.834 39.666 20.691 41.168 20.373 42.188C19.894 43.718 19.422 47.362 22.755 47.362C26.089 47.362 24.433 43.708 24.433 41.732V37.842L25.223 38.052C25.315 38.822 25.362 39.763 25.362 40.877C25.452 41.28 28.317 48.194 22.755 48.194C18.897 48.194 17.981 45.688 20.009 40.676V37.841L20.803 37.681Z" fill="#D29678"/>
<path opacity="0.599" fill-rule="evenodd" clip-rule="evenodd" d="M21.9078 42.411C21.1878 42.784 20.1608 45.829 21.9078 46.046C23.6558 46.264 23.5358 44.261 23.1878 43.336C22.8418 42.411 22.6278 42.039 21.9078 42.411Z" fill="#FFEFC8"/>
<path opacity="0.522" fill-rule="evenodd" clip-rule="evenodd" d="M10.9768 33.946C15.0108 31.76 18.8638 30.666 22.5358 30.666C28.0438 30.666 33.7128 33.713 33.9998 33.946C34.1358 34.057 33.0478 34.236 30.6378 34.314C29.9848 34.334 28.7778 34.334 27.0168 34.314C25.9168 32.136 24.4228 31.106 22.5358 31.226C20.5678 31.351 19.1028 32.319 18.1418 34.129C17.2618 34.286 16.1538 34.348 14.8158 34.314C13.5286 34.2847 12.2452 34.1617 10.9758 33.946H10.9768Z" fill="#782A24"/>
<path fill-rule="evenodd" clip-rule="evenodd" d="M21.049 32.604C20.225 33.245 19.812 34.009 19.812 34.894C19.812 35.781 19.896 36.439 20.064 36.869L18.843 37.186C18.886 35.776 19.019 34.743 19.243 34.086C19.467 33.43 20.069 32.936 21.049 32.604ZM23.16 32.204C24.06 33.028 24.575 33.867 24.704 34.722C24.834 35.577 24.772 36.272 24.518 36.806L26.248 37.241C26.328 35.841 26.19 34.719 25.835 33.874C25.479 33.029 24.587 32.472 23.16 32.204Z" fill="#D1A686"/>
</g>
</svg>
