<svg width="60" height="60" viewBox="0 0 60 60" fill="none" xmlns="http://www.w3.org/2000/svg">
<mask id="mask0" mask-type="alpha" maskUnits="userSpaceOnUse" x="0" y="0" width="60" height="60">
<path d="M0 0H60V60H0V0Z" fill="white"/>
</mask>
<g mask="url(#mask0)">
<path fill-rule="evenodd" clip-rule="evenodd" d="M20.6499 33.082C18.9859 35.676 17.0959 36.54 14.9799 35.676C11.8049 34.379 7.64686 28.94 6.25786 26.149C4.86786 23.359 4.67086 21.536 5.46386 20.44C6.25786 19.344 10.7269 20.518 13.5999 21.536C16.4729 22.554 21.1499 26.076 21.8199 28C22.2679 29.282 21.8779 30.977 20.6499 33.082Z" fill="#598419" stroke="#844C22"/>
<path fill-rule="evenodd" clip-rule="evenodd" d="M12.031 21.06C11.899 20.187 12.185 19.12 12.887 17.86C13.438 16.873 14.226 15.983 15.25 15.19C15.3608 15.1043 15.4883 15.0428 15.6244 15.0095C15.7604 14.9762 15.9019 14.9718 16.0398 14.9967C16.1776 15.0216 16.3087 15.0752 16.4245 15.154C16.5403 15.2327 16.6382 15.3349 16.712 15.454C18.237 17.914 19 19.56 19 20.388C19 21.312 18.268 22.183 16.805 23C15.8703 22.753 14.9785 22.3656 14.16 21.851C13.312 21.324 12.602 21.06 12.031 21.06Z" fill="#598419" stroke="#844C22"/>
<path fill-rule="evenodd" clip-rule="evenodd" d="M7.72488 19.256C6.84488 18.346 6.16288 17.131 5.67488 15.611C5.34488 14.577 5.12488 13.429 5.01988 12.168C5.00455 11.9858 5.03945 11.8029 5.12078 11.6392C5.20212 11.4755 5.32677 11.3372 5.4812 11.2394C5.63563 11.1416 5.81392 11.0879 5.99669 11.0843C6.17946 11.0807 6.35972 11.1273 6.51788 11.219C8.88288 12.589 10.3829 13.503 11.0179 13.959C11.7829 14.509 12.4439 15.403 12.9999 16.64C12.4619 17.207 12.1939 17.69 12.1939 18.087V20C10.8739 19.504 10.0079 19.256 9.59388 19.256H7.72388H7.72488Z" fill="#43680D" stroke="#844C22"/>
<path fill-rule="evenodd" clip-rule="evenodd" d="M11 14.762C11.2 13.018 11.663 11.422 12.387 9.97399C12.944 8.85999 13.645 7.95699 14.49 7.26599C14.6919 7.10118 14.9502 7.02171 15.2098 7.0445C15.4694 7.06728 15.7099 7.19053 15.88 7.38799C19.46 11.544 21.437 14.708 21.81 16.881C22.402 20.317 21.481 22.619 20.773 23.439C20.2517 24.0298 19.6596 24.5541 19.01 25L15.752 22.506C16.915 21.616 17.497 20.646 17.497 19.593C17.497 18.656 16.649 17.085 14.954 14.88C14.8692 14.7698 14.7625 14.6785 14.6404 14.6119C14.5184 14.5454 14.3839 14.5049 14.2454 14.4933C14.1068 14.4816 13.9674 14.4989 13.836 14.5442C13.7046 14.5894 13.584 14.6616 13.482 14.756C13.266 14.956 13.076 15.141 12.911 15.312C12.561 15.672 12.216 16.195 11.874 16.882L11 14.761V14.762Z" fill="#598419" stroke="#844C22"/>
<path fill-rule="evenodd" clip-rule="evenodd" d="M7.11196 27C6.25596 27.354 5.44196 27.717 4.66896 28.088C4.26296 28.282 3.88896 28.48 3.54496 28.683C3.42855 28.7515 3.32723 28.8429 3.24712 28.9517C3.167 29.0604 3.10975 29.1843 3.07882 29.3158C3.04789 29.4473 3.04391 29.5837 3.06714 29.7167C3.09037 29.8498 3.14031 29.9768 3.21396 30.09C5.13696 33.046 7.20696 34.871 9.42296 35.566C11.843 36.325 13.703 36.089 15 34.858C12.941 33.298 11.497 32.178 10.667 31.5C9.83696 30.822 8.65196 29.322 7.11196 27Z" fill="#3C5C0D" stroke="#844C22"/>
<path fill-rule="evenodd" clip-rule="evenodd" d="M38 43C32.833 39.897 28.767 37.764 27.653 36.603C26.54 35.441 24.841 32.907 22.556 29L21.964 30.205L23.329 32.693L21.487 31.713L21 32.693C23.47 34.328 25.13 35.632 25.983 36.603C26.835 37.573 30.549 40.023 34.888 43H38ZM12.047 42.371C14.015 49.608 16.947 53.458 20.842 53.92C24.894 54.401 27.455 52.712 28.526 48.853C29.728 46.769 28.645 44.485 25.277 42.003C22.087 39.65 17.889 39.37 12.686 41.163C12.4459 41.2455 12.2462 41.4162 12.1273 41.6406C12.0085 41.8649 11.9794 42.126 12.046 42.371H12.047ZM29 50.456C30.916 51.181 32.935 51.181 35.057 50.456C37.179 49.73 38.827 48.578 40 47H38.08C36.9378 47.8517 35.742 48.629 34.5 49.327C33.174 50.079 31.49 50.079 29.45 49.327L29 50.456Z" fill="#598419" stroke="#844C22"/>
<path fill-rule="evenodd" clip-rule="evenodd" d="M30 43.282C30.124 43.525 30.216 43.704 30.277 43.819C31.551 46.221 33.341 45.934 34.273 45.934H36.985L38.465 46.533L40 45.934V44.845L39.22 45.186L37.511 45.934C35.864 43.828 34.556 42.775 33.586 42.775C32.616 42.775 31.983 42.183 31.686 41H34.273L40 45.186L37.511 48L36.512 46.533H34.273" fill="#598419"/>
<path d="M30 43.282C30.124 43.525 30.216 43.704 30.277 43.819C31.551 46.221 33.341 45.934 34.273 45.934H36.985L38.465 46.533L40 45.934V44.845L39.22 45.186L37.511 45.934C35.864 43.828 34.556 42.775 33.586 42.775C32.616 42.775 31.983 42.183 31.686 41H34.273L40 45.186L37.511 48L36.512 46.533H34.273" stroke="#844C22"/>
<path fill-rule="evenodd" clip-rule="evenodd" d="M39.455 45L33.057 37.853C30.112 36.928 28.447 35.153 28.061 32.53C27.705 30.104 28.902 26.13 31.654 20.61C31.729 20.4599 31.8405 20.3311 31.9784 20.2355C32.1162 20.1399 32.2759 20.0804 32.4428 20.0627C32.6096 20.045 32.7782 20.0695 32.9331 20.134C33.0879 20.1986 33.2241 20.301 33.329 20.432C38.382 26.739 40.673 31.104 40.204 33.526C39.704 36.099 38.017 37.541 35.142 37.853L41 45H39.455Z" fill="#598419" stroke="#844C22"/>
<path fill-rule="evenodd" clip-rule="evenodd" d="M40.735 44.23L55 49.327V51L41.203 45.748C40.95 45.285 40.793 44.944 40.735 44.723C40.535 43.965 40.691 43.262 41.203 42.613C42.306 41.217 44.503 39.776 44.503 38.266V35C43.758 35.296 43.234 35.525 42.933 35.687C42.14 36.11 41.563 36.574 41.203 37.077C40.353 38.266 39.502 39.077 40.353 40.553C41.203 42.029 42.783 43.504 44.503 42.029C46.223 40.553 45.913 40.396 45.913 37.699C45.913 35.899 45.443 35 44.503 35" fill="#598419"/>
<path d="M40.735 44.23L55 49.327V51L41.203 45.748C40.95 45.285 40.793 44.944 40.735 44.723C40.535 43.965 40.691 43.262 41.203 42.613C42.306 41.217 44.503 39.776 44.503 38.266V35C43.758 35.296 43.234 35.525 42.933 35.687C42.14 36.11 41.563 36.574 41.203 37.077C40.353 38.266 39.502 39.077 40.353 40.553C41.203 42.029 42.783 43.504 44.503 42.029C46.223 40.553 45.913 40.396 45.913 37.699C45.913 35.899 45.443 35 44.503 35" stroke="#844C22"/>
<path fill-rule="evenodd" clip-rule="evenodd" d="M41 46.368L55.138 51L56 49.474L41 45V46.368Z" fill="#40640A" stroke="#844C22" stroke-linecap="round" stroke-linejoin="round"/>
<path fill-rule="evenodd" clip-rule="evenodd" d="M30.1579 42.002C29.7899 42.071 30.1829 44.296 30.1579 44.572C30.0009 46.257 31.6219 47.485 32.9999 47.872C35.4039 48.545 35.9999 46.41 35.9999 45.314C35.9999 44.218 33.8989 43.683 33.2089 43.683C32.5189 43.683 30.5249 41.933 30.1579 42.002Z" fill="#598419" stroke="#844C22"/>
<path fill-rule="evenodd" clip-rule="evenodd" d="M9 23.042C9 23.548 13.842 28.764 15.94 29.833C17.338 30.546 19.165 31.601 21.42 33L22 31.76C19.66 30.198 17.821 28.973 16.481 28.086C14.471 26.756 9 22.536 9 23.042ZM14 20.401V17.837C14 16.957 14.289 16.01 14.867 15V21L14 20.401ZM13 43C14.218 45.199 15.818 46.712 17.8 47.539C20.775 48.779 22.36 48.233 23.94 48.706C24.993 49.021 26.203 49.453 27.568 50L28 48.706C26.396 47.95 25.197 47.561 24.404 47.539C23.214 47.506 18.674 47.357 17.801 46.5C17.218 45.928 15.618 44.762 13 43ZM34 37C32.387 35.329 31.75 33.48 32.088 31.455L32.094 31.422C32.1168 31.2843 32.1887 31.1595 32.2964 31.0708C32.4042 30.9821 32.5404 30.9354 32.6799 30.9395C32.8194 30.9435 32.9527 30.9979 33.0552 31.0927C33.1576 31.1875 33.2222 31.3162 33.237 31.455C33.526 34.162 33.78 36.01 34 37ZM31 45C32.57 46.778 33.544 47.37 33.921 46.778C34.298 46.185 33.324 45.593 31 45Z" fill="#99CA4F"/>
</g>
</svg>
