<svg width="15" height="15" viewBox="0 0 15 15" fill="none" xmlns="http://www.w3.org/2000/svg">
<path fill-rule="evenodd" clip-rule="evenodd" d="M0 14.1519L0.872296 10.3593L8.96 2.29053L12.3164 5.6375L4.21926 13.6873L0.426666 14.5691L0 14.1519ZM12.3259 0.280461L14.336 2.29053C14.5126 2.46818 14.6117 2.70849 14.6117 2.95898C14.6117 3.20947 14.5126 3.44978 14.336 3.62742L12.9422 4.97379L9.59526 1.61735L10.9321 0.280461C11.0203 0.191592 11.1252 0.121055 11.2407 0.0729189C11.3562 0.0247827 11.4802 0 11.6053 0C11.7305 0 11.8544 0.0247827 11.97 0.0729189C12.0855 0.121055 12.1904 0.191592 12.2785 0.280461H12.3259Z" fill="#EDEDED"/>
</svg>
