<svg width="60" height="60" viewBox="0 0 60 60" fill="none" xmlns="http://www.w3.org/2000/svg">
<mask id="mask0" mask-type="alpha" maskUnits="userSpaceOnUse" x="0" y="0" width="60" height="60">
<path d="M0 0H60V60H0V0Z" fill="white"/>
</mask>
<g mask="url(#mask0)">
<path fill-rule="evenodd" clip-rule="evenodd" d="M23.551 29.152C19.988 29.369 18.101 30.389 16.802 32.939C16.3476 33.8308 16.1199 34.8208 16.1388 35.8216C16.1577 36.8223 16.4228 37.8029 16.9105 38.677C17.3983 39.551 18.0937 40.2914 18.9355 40.833C19.7773 41.3745 20.7394 41.7004 21.737 41.782C30.255 42.479 37.385 41.469 43.127 38.754C53.361 33.914 57.573 28.454 54.795 25.225C52.017 21.995 47.68 31.011 38.105 29.168C28.528 27.325 27.115 28.934 23.551 29.152Z" fill="#2B6E0C" stroke="#844C22"/>
<path fill-rule="evenodd" clip-rule="evenodd" d="M16.737 32.838C15.238 32.466 14.259 32.76 13.799 33.722C13.109 35.165 12.725 36.61 13.361 37.872C13.785 38.712 14.911 38.975 16.736 38.66C16.3632 37.7335 16.1694 36.7447 16.165 35.746C16.165 34.772 16.355 33.803 16.737 32.838Z" fill="#3F9E13" stroke="#844C22"/>
<path fill-rule="evenodd" clip-rule="evenodd" d="M2.04004 30.269C4.52204 32.435 6.36204 33.843 7.56004 34.492C8.75704 35.142 10.473 35.727 12.707 36.25L13.17 34.492C11.415 34.449 9.82804 34.037 8.40804 33.255C6.98804 32.474 5.05204 31.245 2.60004 29.568L2.04004 30.269Z" fill="#34870F" stroke="#844C22" stroke-linecap="round" stroke-linejoin="round"/>
<path d="M21.6421 37.69C22.1491 38.383 23.2411 38.715 24.9181 38.686C26.5951 38.656 27.6791 38.55 28.1711 38.366" stroke="white" stroke-linecap="round" stroke-linejoin="round"/>
<path fill-rule="evenodd" clip-rule="evenodd" d="M36.2331 25C33.8631 23.197 32.1371 22.817 29.9891 23.728C29.2345 24.0482 28.5697 24.5479 28.0525 25.1838C27.5353 25.8196 27.1814 26.5723 27.0216 27.3762C26.8617 28.1801 26.9009 29.0109 27.1356 29.7962C27.3703 30.5815 27.7934 31.2976 28.3681 31.882C33.4531 37.056 38.5451 40.352 43.6451 41.771C52.6441 44.274 57.1801 41.551 57.7491 40.076C58.3521 38.512 50.2151 40.304 45.1061 33.914C39.9971 27.524 38.6031 26.804 36.2331 25.001V25Z" fill="#3FA610" stroke="#844C22"/>
<path fill-rule="evenodd" clip-rule="evenodd" d="M30.0501 23.716C29.3771 22.724 28.6401 22.403 27.8401 22.755C26.6381 23.283 25.6331 23.978 25.3811 25.109C25.2131 25.863 25.7081 26.542 26.8641 27.145L30.0491 23.716H30.0501Z" fill="#3FA610" stroke="#844C22"/>
<path fill-rule="evenodd" clip-rule="evenodd" d="M26.994 22.869C26.124 22.526 25.072 21.554 23.836 19.953C22.6 18.351 21.461 16.483 20.419 14.348L19.759 14.786C20.819 17.456 21.715 19.386 22.449 20.579C23.185 21.772 24.209 22.957 25.522 24.136L26.994 22.869Z" fill="#34870F" stroke="#844C22" stroke-linecap="round" stroke-linejoin="round"/>
<path d="M30.554 29.527C30.791 30.47 31.933 31.77 33.979 33.427C36.025 35.084 37.396 36.1 38.092 36.476" stroke="white" stroke-linecap="round" stroke-linejoin="round"/>
</g>
</svg>
