<svg width="60" height="60" viewBox="0 0 60 60" fill="none" xmlns="http://www.w3.org/2000/svg">
<mask id="mask0" mask-type="alpha" maskUnits="userSpaceOnUse" x="0" y="0" width="60" height="60">
<path d="M0 0H60V60H0V0Z" fill="white"/>
</mask>
<g mask="url(#mask0)">
<path fill-rule="evenodd" clip-rule="evenodd" d="M28.7069 14.685L16.3069 13.277C10.3609 13.147 6.53587 15.94 4.83187 21.657C3.15887 27.267 5.79387 31.848 7.05187 33.094C7.88987 33.925 12.5649 36.309 21.0759 40.246C16.6339 37.198 15.0449 32.156 16.3069 25.124C17.5699 18.09 21.7029 14.611 28.7069 14.684V14.685Z" fill="#DA7070" stroke="#844C22" stroke-width="1.1" stroke-linecap="round" stroke-linejoin="round"/>
<path fill-rule="evenodd" clip-rule="evenodd" d="M7.48786 32.857C6.75886 32.231 5.64486 30.038 5.27386 28.741C4.85986 27.291 4.72886 25.771 4.88386 24.181C6.37452 25.1541 7.96571 25.9638 9.62986 26.596C11.3156 27.2385 13.0207 27.8287 14.7429 28.366C14.5769 29.8 14.8469 31.6 15.5529 33.766C16.2579 35.933 17.0569 37.394 17.9509 38.149C12.1529 35.515 8.66486 33.751 7.48786 32.857Z" fill="#BF4D45"/>
<path opacity="0.452" fill-rule="evenodd" clip-rule="evenodd" d="M9.29688 15.75L19.0899 17.7C19.6169 17.12 20.3309 16.551 21.2329 15.996C22.1349 15.441 23.0289 15.016 23.9149 14.719L16.3249 13.806C14.6989 13.806 13.3919 13.94 12.4039 14.208C11.4149 14.476 10.3799 14.99 9.29788 15.748L9.29688 15.75Z" fill="#CB524A"/>
<path d="M31.977 15.3125C25.6527 13.1349 18.5299 17.1661 16.0679 24.3165C13.6058 31.467 16.7367 39.0288 23.061 41.2065C29.3853 43.3841 36.5081 39.3529 38.9702 32.2024C41.4323 25.052 38.3014 17.4901 31.977 15.3125Z" fill="#E37979" stroke="#844C22" stroke-width="1.1"/>
<path opacity="0.884" d="M32.8763 29.0697C31.8643 28.7213 30.7587 29.2668 30.407 30.2882C30.0553 31.3096 30.5906 32.4201 31.6026 32.7686C32.6147 33.1171 33.7202 32.5715 34.0719 31.5501C34.4236 30.5287 33.8883 29.4182 32.8763 29.0697Z" fill="#FFEDE9"/>
<path d="M26.8817 30.1099C26.1229 29.8486 25.294 30.2578 25.0302 31.0239C24.7664 31.79 25.1677 32.6228 25.9265 32.884C26.6852 33.1453 27.5141 32.7361 27.7779 31.97C28.0417 31.2039 27.6404 30.3711 26.8817 30.1099Z" fill="#FFEDE9"/>
<path opacity="0.959" d="M31.6195 19.3278C30.8607 19.0665 30.0318 19.4758 29.768 20.2418C29.5042 21.0079 29.9055 21.8407 30.6642 22.1019C31.423 22.3632 32.2519 21.954 32.5157 21.1879C32.7795 20.4219 32.3782 19.5891 31.6195 19.3278Z" fill="#FFEDE9"/>
<path opacity="0.974" d="M24.9894 22.2167C23.4714 21.6941 21.8132 22.5124 21.2856 24.0445C20.7581 25.5766 21.561 27.2424 23.079 27.7651C24.597 28.2877 26.2553 27.4694 26.7829 25.9373C27.3104 24.4052 26.5075 22.7394 24.9894 22.2167Z" fill="#FFEDE9"/>
<path opacity="0.884" d="M29.1211 35.5122C28.599 35.3324 28.0299 35.6099 27.8501 36.1321C27.6703 36.6543 27.9478 37.2234 28.47 37.4032C28.9922 37.583 29.5613 37.3055 29.7411 36.7833C29.9209 36.2611 29.6433 35.692 29.1211 35.5122Z" fill="#FFEDE9"/>
<path opacity="0.884" d="M22.0909 33.6087C21.5687 33.4288 20.9996 33.7064 20.8198 34.2286C20.64 34.7508 20.9175 35.3199 21.4397 35.4997C21.9619 35.6795 22.531 35.4019 22.7108 34.8797C22.8906 34.3575 22.6131 33.7885 22.0909 33.6087Z" fill="#FFEDE9"/>
<path opacity="0.566" fill-rule="evenodd" clip-rule="evenodd" d="M36.2257 18.7882C36.2257 18.7882 39.811 28.4022 33.4052 36.0959C30.821 39.1996 25.3684 39.8615 21.8684 37.5649C17.6913 34.8236 17.0802 30.2896 16.4459 25.1469C14.8731 29.7147 15.9732 38.1516 23.4239 40.717C30.8746 43.2825 36.5762 37.5082 38.528 31.8398C40.4801 26.1704 38.5095 21.272 36.2254 18.7891L36.2257 18.7882Z" fill="white"/>
<path d="M30.9269 15.4303C24.3033 16.3611 19.787 23.1867 20.8395 30.6755C21.892 38.1644 28.1147 43.4806 34.7383 42.5497C41.3619 41.6188 45.8782 34.7933 44.8257 27.3045C43.7733 19.8156 37.5505 14.4994 30.9269 15.4303Z" fill="#E37979" stroke="#844C22" stroke-width="1.1"/>
<path opacity="0.884" d="M37.9734 27.2799C36.9135 27.4288 36.1762 28.4168 36.3265 29.4865C36.4769 30.5563 37.458 31.3027 38.5179 31.1538C39.5778 31.0048 40.3151 30.0169 40.1648 28.9471C40.0144 27.8774 39.0333 27.1309 37.9734 27.2799Z" fill="#FFEDE9"/>
<path d="M33.105 30.928C32.3103 31.0396 31.7575 31.7806 31.8703 32.5829C31.983 33.3852 32.7186 33.9451 33.5133 33.8334C34.3079 33.7217 34.8607 32.9808 34.748 32.1785C34.6352 31.3761 33.8996 30.8163 33.105 30.928Z" fill="#FFEDE9"/>
<path opacity="0.959" d="M32.4311 19.1703C31.6365 19.282 31.0837 20.0229 31.1964 20.8253C31.3092 21.6276 32.0448 22.1874 32.8395 22.0758C33.6341 21.9641 34.1869 21.2231 34.0742 20.4208C33.9614 19.6185 33.2258 19.0586 32.4311 19.1703Z" fill="#FFEDE9"/>
<path opacity="0.974" d="M27.8354 24.7542C26.2455 24.9777 25.1395 26.4596 25.365 28.0643C25.5905 29.6689 27.0622 30.7886 28.6521 30.5651C30.2419 30.3417 31.3479 28.8597 31.1224 27.2551C30.8969 25.6505 29.4253 24.5308 27.8354 24.7542Z" fill="#FFEDE9"/>
<path opacity="0.884" d="M37.5527 34.7249C37.0058 34.8018 36.6247 35.3074 36.7016 35.8543C36.7784 36.4012 37.2841 36.7823 37.831 36.7054C38.3779 36.6286 38.759 36.1229 38.6821 35.576C38.6053 35.0291 38.0996 34.648 37.5527 34.7249Z" fill="#FFEDE9"/>
<path opacity="0.884" d="M30.4243 36.2205C29.8773 36.2974 29.4963 36.803 29.5732 37.35C29.65 37.8969 30.1557 38.2779 30.7026 38.201C31.2495 38.1242 31.6306 37.6185 31.5537 37.0716C31.4768 36.5247 30.9712 36.1436 30.4243 36.2205Z" fill="#FFEDE9"/>
<path opacity="0.566" fill-rule="evenodd" clip-rule="evenodd" d="M36.2905 16.5981C36.2905 16.5981 43.8497 23.5366 41.6349 33.2999C40.7414 37.2386 36.1836 40.3037 32.0225 39.8464C27.0561 39.3002 24.4532 35.5379 21.5533 31.2437C22.2257 36.0277 27.0362 43.0455 34.8395 41.9488C42.6428 40.8521 45.1014 33.1187 44.2671 27.182C43.4326 21.2444 39.453 17.7744 36.2906 16.5991L36.2905 16.5981Z" fill="white"/>
<path d="M32.733 21.1679C28.0034 25.8976 28.5042 34.0667 33.8517 39.4141C39.1991 44.7616 47.3682 45.2624 52.0979 40.5327C56.8275 35.8031 56.3267 27.634 50.9792 22.2866C45.6318 16.9391 37.4627 16.4383 32.733 21.1679Z" fill="#E37979" stroke="#844C22" stroke-width="1.1"/>
<path opacity="0.884" d="M45.4918 26.3906C44.735 27.1475 44.7407 28.3802 45.5046 29.1441C46.2684 29.908 47.5012 29.9137 48.258 29.1568C49.0149 28.4 49.0092 27.1672 48.2453 26.4033C47.4815 25.6395 46.2487 25.6338 45.4918 26.3906Z" fill="#FFEDE9"/>
<path d="M43.7993 32.2341C43.2319 32.8016 43.2363 33.726 43.8092 34.2989C44.3821 34.8718 45.3065 34.8762 45.8739 34.3088C46.4414 33.7414 46.4369 32.8169 45.864 32.244C45.2911 31.6711 44.3667 31.6667 43.7993 32.2341Z" fill="#FFEDE9"/>
<path opacity="0.959" d="M36.185 23.2496C35.6176 23.8171 35.622 24.7415 36.1949 25.3144C36.7678 25.8873 37.6923 25.8917 38.2597 25.3243C38.8271 24.7569 38.8227 23.8324 38.2498 23.2595C37.6769 22.6866 36.7525 22.6822 36.185 23.2496Z" fill="#FFEDE9"/>
<path opacity="0.974" d="M35.8752 30.4749C34.74 31.6101 34.7485 33.4593 35.8943 34.6051C37.0401 35.7509 38.8893 35.7594 40.0245 34.6242C41.1598 33.4889 41.1512 31.6398 40.0054 30.494C38.8596 29.3482 37.0105 29.3396 35.8752 30.4749Z" fill="#FFEDE9"/>
<path opacity="0.884" d="M49.6365 32.5898C49.246 32.9803 49.246 33.6135 49.6365 34.004C50.027 34.3946 50.6602 34.3946 51.0507 34.004C51.4412 33.6135 51.4412 32.9803 51.0507 32.5898C50.6602 32.1993 50.027 32.1993 49.6365 32.5898Z" fill="#FFEDE9"/>
<path opacity="0.884" d="M44.8435 38.0741C44.453 38.4647 44.453 39.0978 44.8435 39.4883C45.234 39.8789 45.8672 39.8789 46.2577 39.4883C46.6483 39.0978 46.6483 38.4647 46.2577 38.0741C45.8672 37.6836 45.234 37.6836 44.8435 38.0741Z" fill="#FFEDE9"/>
<path opacity="0.566" fill-rule="evenodd" clip-rule="evenodd" d="M37.7193 18.8727C37.7193 18.8727 47.9321 19.8647 52.039 28.9949C53.6957 32.6782 51.9004 37.8691 48.3019 40.0081C44.0069 42.5607 39.6639 41.1225 34.7636 39.4381C38.1797 42.8542 46.2449 45.5638 51.8169 39.9918C57.3889 34.4198 54.6984 26.764 50.4593 22.5249C46.2195 18.285 40.9529 17.9089 37.72 18.8734L37.7193 18.8727Z" fill="white"/>
</g>
</svg>
