<svg width="60" height="60" viewBox="0 0 60 60" fill="none" xmlns="http://www.w3.org/2000/svg">
<mask id="mask0" mask-type="alpha" maskUnits="userSpaceOnUse" x="0" y="0" width="60" height="60">
<path d="M0 0H60V60H0V0Z" fill="white"/>
</mask>
<g mask="url(#mask0)">
<path fill-rule="evenodd" clip-rule="evenodd" d="M38.0598 26.522L38.1838 28.518L37.5958 30.19L36.6018 29.506L35.5698 32.16L34.5768 31.413C34.4168 32.253 34.2158 32.835 33.9738 33.158C33.7848 33.408 33.3398 33.687 32.6378 33.992C32.6838 33.782 32.1298 33.009 32.1428 32.292C32.1498 31.895 32.7368 31.727 32.7328 31.172L31.1488 31.61C31.2028 30.853 31.1698 29.824 31.2878 29.248C31.4698 28.352 31.8478 28.038 32.1838 27.582C31.6988 27.819 31.4138 28.416 30.3078 29.356C29.9148 29.691 28.9738 30.061 28.5028 30.484L29.1288 28.377L27.7318 29.25L25.6548 29.783L26.0578 27.742L23.4348 27.055C23.7828 26.863 24.4848 26.425 25.5388 25.741L24.5838 24.213C25.1838 23.671 25.6488 23.38 25.9818 23.34C26.3138 23.301 26.9518 23.461 27.8958 23.821L27.0468 22.073C27.9058 21.693 28.5278 21.505 28.9128 21.508C29.2988 21.511 29.8768 21.709 30.6488 22.101C29.4688 21.041 28.7058 20.301 28.3568 19.88C27.8928 19.32 27.4368 18.591 26.9898 17.692C27.2598 17.626 28.1168 17.505 29.5598 17.33C28.9958 16.654 28.3948 16.23 27.9868 15.719C27.2808 14.834 26.9238 14.027 26.6848 13.636L28.7018 13.345L27.8248 11.94L27.3758 9.655C28.5118 10.088 29.2798 10.463 29.6798 10.781C30.0798 11.099 30.3718 11.567 30.5568 12.186L31.7038 10.501C31.8558 10.739 32.5788 11.809 32.8218 12.291C33.1998 13.038 33.1638 13.369 33.7628 14.704C34.5528 13.484 35.0378 12.766 35.2148 12.552C35.8908 13.489 36.3468 14.218 36.5818 14.74C36.8708 15.379 37.2018 16.39 37.5738 17.774C37.7708 16.836 37.9728 16.151 38.1798 15.718C38.3868 15.285 38.7028 14.888 39.1278 14.524L40.3268 16.054L42.1308 13.249L43.0858 14.776C44.1628 14.128 44.8638 13.69 45.1888 13.462C45.1888 14.206 45.1598 14.714 45.1058 14.985C45.0418 15.305 44.8918 15.683 44.6558 16.12L46.6678 16.653C46.0478 17.465 45.5858 18.009 45.2778 18.285C44.9708 18.562 44.5048 18.853 43.8808 19.158L46.0498 19.52C45.2418 19.847 44.5358 20.567 43.9448 20.835C42.8968 21.31 42.1958 21.268 41.8278 21.556C42.7428 21.39 44.1008 21.668 45.9008 22.392L44.8138 23.624C45.3228 23.876 45.7148 23.413 46.0818 23.583C46.7168 23.878 47.1828 24.724 47.3898 24.774C46.8138 25.27 46.3678 25.548 46.0538 25.609C45.6638 25.684 45.0538 25.61 44.2208 25.386L44.4578 26.606L42.8478 26.908L41.6198 26.371L41.3768 27.827L39.6698 27.59L38.0598 26.522Z" fill="#AAA038" stroke="#844C22" stroke-linecap="round" stroke-linejoin="round"/>
<path d="M5.69992 45.207C6.42892 44.249 6.96992 44.249 7.32592 45.207C7.96592 46.934 6.56192 48.38 4.95192 47.921C0.780925 46.732 4.04192 41.784 7.76892 41.784C11.4969 41.784 15.2789 47.246 23.8219 47.246C32.3639 47.246 46.3969 42.169 49.0749 39.39C51.7519 36.61 47.3189 32.82 43.9529 31.87C41.6019 31.206 39.9059 29.834 38.8639 27.752" stroke="#844C22" stroke-linecap="round" stroke-linejoin="round"/>
<path fill-rule="evenodd" clip-rule="evenodd" d="M10.3818 46.052C15.1668 41.788 17.6678 37.625 17.8848 33.564C18.2098 27.472 19.5408 27.997 21.4598 27.614C23.3788 27.232 24.7488 33.094 24.4118 34.755C24.1972 35.8051 24.0088 36.8605 23.8468 37.92C23.1168 40.708 22.4798 42.467 21.9328 43.2C19.2498 46.795 16.6458 47.679 15.7028 49.25C13.8538 52.325 10.4678 52.311 9.56481 50.614C8.96181 49.482 9.23481 47.961 10.3818 46.052Z" fill="#DAD472" stroke="#844C22"/>
<path fill-rule="evenodd" clip-rule="evenodd" d="M14.7818 50.312C16.4208 52.734 19.4308 50.644 22.2718 48.496C25.1148 46.349 25.4218 45.668 27.5358 43.759C29.6518 41.851 33.4298 39.078 29.7958 37.236C26.1618 35.393 23.0358 39.634 21.8028 41.718C20.5698 43.802 18.0908 44.765 16.0458 44.748C14.0008 44.732 13.1428 47.89 14.7818 50.312Z" fill="#AC8C4F" stroke="#844C22"/>
<path fill-rule="evenodd" clip-rule="evenodd" d="M24.0488 50.832C23.8088 47.741 24.4538 45.576 25.9848 44.338C28.2808 42.481 31.0608 41.12 33.1348 39.707C35.2058 38.293 39.7478 35 41.1258 35C42.3818 35 44.9678 36.332 43.6198 39.707C43.4898 40.034 39.1768 42.697 35.5778 45.932C31.9778 49.167 31.3828 52 28.2428 52C26.1498 52 24.7508 51.61 24.0478 50.832H24.0488Z" fill="#AC8C4F" stroke="#844C22"/>
<path fill-rule="evenodd" clip-rule="evenodd" d="M38.6 43.8C43.22 42.733 46.204 42.733 47.555 43.8C49.58 45.399 49.58 48.035 46.896 48.834C44.212 49.634 41 47.236 39.219 48.035C37.439 48.835 33 48.835 33 48.835L36.935 45.031L38.6 43.8Z" fill="#DAD472" stroke="#844C22"/>
<path fill-rule="evenodd" clip-rule="evenodd" d="M26.4899 45.69C24.9999 47.664 24.6279 49.045 25.3719 49.831C26.3149 50.826 27.8319 47.18 28.6039 45.366C28.7469 45.03 41.9999 36.636 41.9999 36.272C41.9999 35.292 39.2889 36.742 28.0769 44.294C27.8139 44.471 27.2849 44.936 26.4889 45.689L26.4899 45.69Z" fill="#CFC48B"/>
<path d="M20.4939 27.515C19.3349 26.408 18.5289 25.49 18.0779 24.759C17.6259 24.029 17.3999 23.109 17.3999 22" stroke="#844C22" stroke-linecap="round" stroke-linejoin="round"/>
<path fill-rule="evenodd" clip-rule="evenodd" d="M10.433 50C10.651 50.595 11.805 50.21 11.805 49.255C11.805 48.3 11.745 47.26 12.616 45.995C13.489 44.73 17.806 40.67 18.433 38.68C19.061 36.69 19.461 35.44 19.773 33.625C20.083 31.81 21.25 31.145 21.25 29.975C21.25 28.805 20.1 28.105 19.46 28.805C18.822 29.505 18.433 31.085 18.433 34.27C17.911 36.505 17.199 38.925 15.593 41.275C13.988 43.625 11.433 45.2 10.433 46.96C9.433 48.72 10.215 49.405 10.433 50Z" fill="#FFFBB8"/>
<path fill-rule="evenodd" clip-rule="evenodd" d="M15.1109 45.685C14.4889 46.012 14.3329 46.45 14.6439 47C15.1109 47.825 16.9059 47.75 17.3609 47C17.8169 46.25 18.9219 45.62 19.7719 45.12C20.6219 44.62 22.6669 42.495 23.5439 41.54C24.4219 40.585 26.7839 39.75 27.6889 38.855C28.5939 37.96 28.2559 37.445 27.3109 37.445C26.3659 37.445 24.6999 38.555 24.1219 39.42C23.5439 40.285 21.7499 43.2 20.4609 43.875C19.1719 44.55 17.7389 45.12 16.6779 45.12C15.9699 45.12 15.4479 45.308 15.1109 45.685Z" fill="#CFC48B"/>
<path fill-rule="evenodd" clip-rule="evenodd" d="M28.1501 10.44C32.5351 17.803 34.9101 21.868 35.2721 22.635C35.6351 23.402 36.4201 24.545 37.6281 26.065C37.1201 25.871 36.4911 26.241 35.7381 27.175C34.6111 28.575 34.0501 30.695 33.5221 30.695C32.9951 30.695 32.9951 28.285 33.5221 27.175C34.0501 26.065 34.5771 24.45 34.0501 24.45C33.5221 24.45 31.7891 25.545 29.8001 26.065C27.8111 26.585 26.1391 27.175 26.6221 26.065C27.1051 24.955 31.8331 24.715 32.1251 22.635C32.4171 20.555 30.9951 19.685 30.5391 18.345C30.2351 17.452 29.4391 14.817 28.1491 10.44H28.1501Z" fill="#C6BC52"/>
</g>
</svg>
