<svg width="60" height="60" viewBox="0 0 60 60" fill="none" xmlns="http://www.w3.org/2000/svg">
<mask id="mask0" mask-type="alpha" maskUnits="userSpaceOnUse" x="0" y="0" width="60" height="60">
<path d="M0 0H60V60H0V0Z" fill="white"/>
</mask>
<g mask="url(#mask0)">
<mask id="mask1" mask-type="alpha" maskUnits="userSpaceOnUse" x="-5" y="1" width="52" height="53">
<path d="M-5 1H47V52H37.622C32.333 53.02 26.792 53.53 21 53.53C15.208 53.53 9.696 53.02 4.466 52H-5V1Z" fill="white"/>
</mask>
<g mask="url(#mask1)">
<path fill-rule="evenodd" clip-rule="evenodd" d="M20 27.737C19.0436 26.2322 17.9116 24.8465 16.628 23.609C15.606 22.617 14.063 21.748 12 21C12.3454 22.1892 12.8055 23.3419 13.374 24.442C13.969 25.609 15.054 27.128 16.628 29C17.1638 28.7114 17.7127 28.4478 18.273 28.21C18.8245 27.9748 19.4055 27.816 20 27.738V27.737Z" fill="#A8E68A" stroke="#AB7055" stroke-linecap="round" stroke-linejoin="round"/>
<path fill-rule="evenodd" clip-rule="evenodd" d="M18.62 29.17C17.818 24.79 17.326 21.99 17.142 20.768C16.892 19.106 16.473 16.152 15.886 11.905C18.412 15.84 19.994 18.399 20.632 19.581C21.27 20.764 21.789 22.126 22.187 23.667C22.9471 22.7243 23.6768 21.7575 24.375 20.768C24.934 19.971 26.363 18.513 28.664 16.395C27.959 20.55 27.394 23.079 26.969 23.98C26.544 24.881 25.898 26.611 25.031 29.17C23.451 28.396 22.239 28.01 21.391 28.01C20.544 28.01 19.621 28.396 18.619 29.17H18.62Z" fill="#9DE37A" stroke="#AB7055" stroke-linecap="round" stroke-linejoin="round"/>
<path fill-rule="evenodd" clip-rule="evenodd" d="M13.769 26.06C12.685 25.008 11.354 24.739 9.776 25.253C8.198 25.768 7.273 26.915 7 28.693C8.01 27.058 9.537 26.773 11.579 27.837C13.621 28.901 14.525 29.956 14.29 31L16 29.35L13.769 26.06Z" fill="#518B33" stroke="#AB7055" stroke-linecap="round" stroke-linejoin="round"/>
<path fill-rule="evenodd" clip-rule="evenodd" d="M27.153 29C27.9 25.884 28.587 24.047 29.214 23.489C29.842 22.931 30.771 22.184 32 21.249C31.203 21.083 30.275 21 29.214 21C27.624 21 26.383 22.221 25.075 23.765C24.203 24.794 23.845 25.923 24 27.154C24.519 27.205 25.06 27.392 25.624 27.715C26.2045 28.0516 26.7221 28.4864 27.154 29H27.153Z" fill="#88CE66" stroke="#AB7055" stroke-linecap="round" stroke-linejoin="round"/>
<path fill-rule="evenodd" clip-rule="evenodd" d="M14.913 21.975C13.429 20.465 12.686 18.647 12.686 16.52C12.686 14.392 11.368 12.885 8.72998 12C10.934 11.533 12.72 12.14 14.086 13.82C15.452 15.5 16.336 17.06 16.736 18.5L17.33 24.09L14.913 21.975Z" fill="#71B250" stroke="#AB7055" stroke-linecap="round" stroke-linejoin="round"/>
<path fill-rule="evenodd" clip-rule="evenodd" d="M18.592 15.955C19.931 13.187 20.251 11.361 19.552 10.479C18.854 9.596 17.67 9.375 16 9.814C18.167 8 20.112 7.547 21.835 8.454C24.419 9.814 24.175 13.211 23.692 15.489C23.371 17.008 22.889 19.665 22.247 23.46C21.645 21.506 21.064 20.066 20.503 19.14C19.8617 18.0809 19.2247 17.0192 18.592 15.955Z" fill="#88CE66" stroke="#AB7055" stroke-linecap="round" stroke-linejoin="round"/>
<path fill-rule="evenodd" clip-rule="evenodd" d="M23.0419 14.784C23.3529 13.844 24.9719 11.267 27.6279 11.016C29.3979 10.849 30.5229 11.975 30.9999 14.394C29.7099 12.916 28.5869 12.597 27.6279 13.438C26.6699 14.278 26.5649 15.61 27.3139 17.435C26.1169 18.569 25.1729 19.585 24.4799 20.485C23.7641 21.4131 23.0215 22.3201 22.2529 23.205C22.5709 18.217 22.8339 15.41 23.0419 14.784Z" fill="#71B250" stroke="#AB7055" stroke-linecap="round" stroke-linejoin="round"/>
<path fill-rule="evenodd" clip-rule="evenodd" d="M24 28.047C26.07 26.371 27.776 25.724 29.119 26.107C30.462 26.488 31.086 27.135 30.991 28.047C29.49 27.42 28.471 27.543 27.931 28.414C27.872 28.5097 27.8146 28.6063 27.759 28.704C27.479 29.194 27.222 29.626 26.985 30C26.625 29.653 26.219 29.308 25.768 28.966C25.316 28.623 24.728 28.316 24 28.046V28.047Z" fill="#A8E68A" stroke="#AB7055"/>
<mask id="mask2" mask-type="alpha" maskUnits="userSpaceOnUse" x="5" y="27" width="32" height="32">
<path d="M25.0559 27.172H20.8959C12.7759 30.883 9.73094 34.98 7.52794 39.462C4.22394 46.184 4.22294 54.697 7.52794 57.192C10.8339 59.686 31.1649 59.518 34.3909 57.192C37.6159 54.866 37.4359 44.845 34.3909 39.462C32.3609 35.872 29.2489 31.776 25.0559 27.172Z" fill="white"/>
</mask>
<g mask="url(#mask2)">
<path d="M25.0559 27.172H20.8959C12.7759 30.883 9.73094 34.98 7.52794 39.462C4.22394 46.184 4.22294 54.697 7.52794 57.192C10.8339 59.686 31.1649 59.518 34.3909 57.192C37.6159 54.866 37.4359 44.845 34.3909 39.462C32.3609 35.872 29.2489 31.776 25.0559 27.172Z" fill="#FFE166" stroke="#AB7055"/>
<path fill-rule="evenodd" clip-rule="evenodd" d="M15.6471 3.22501L65.0201 79.445L54.3901 88.193L3.97412 11.206L15.6471 3.22501Z" stroke="#AB7055"/>
<path fill-rule="evenodd" clip-rule="evenodd" d="M27.0681 -5L76.4421 71.22L65.8121 79.968L15.3951 2.98L27.0681 -5ZM3.41006 9.955L52.7831 86.175L42.1531 94.923L-8.26294 17.936L3.41006 9.955Z" stroke="#AB7055"/>
<path fill-rule="evenodd" clip-rule="evenodd" d="M-10.4591 13.694L38.9149 89.914L28.2849 98.662L-22.1311 21.674L-10.4591 13.694Z" stroke="#AB7055"/>
<path fill-rule="evenodd" clip-rule="evenodd" d="M-24.327 18.18L25.046 94.4L14.416 103.149L-36 26.16L-24.327 18.18Z" stroke="#AB7055"/>
<path fill-rule="evenodd" clip-rule="evenodd" d="M25.353 3.22501L-24.02 79.445L-13.39 88.193L37.026 11.206L25.353 3.22501Z" stroke="#A67F60"/>
<path fill-rule="evenodd" clip-rule="evenodd" d="M13.9321 -5L-35.4419 71.22L-24.8119 79.968L25.6051 2.98L13.9321 -5ZM37.5901 9.955L-11.7829 86.175L-1.15289 94.923L49.2631 17.936L37.5901 9.955Z" stroke="#A67F60"/>
<path fill-rule="evenodd" clip-rule="evenodd" d="M51.459 13.694L2.08496 89.914L12.715 98.662L63.132 21.674L51.459 13.694Z" stroke="#A67F60"/>
<path fill-rule="evenodd" clip-rule="evenodd" d="M65.3271 18.18L15.9541 94.4L26.5841 103.149L77.0001 26.16L65.3271 18.18Z" stroke="#A67F60"/>
<path opacity="0.53" fill-rule="evenodd" clip-rule="evenodd" d="M12.6531 23.558L4.87012 34.826L12.6531 46.888L20.0601 35.223L12.4101 23.558L16.0941 34.11C16.2399 34.5275 16.2915 34.9721 16.2453 35.4119C16.1992 35.8517 16.0564 36.2758 15.8271 36.654L14.4851 38.866C14.2749 39.2124 13.9773 39.4973 13.622 39.6921C13.2668 39.8869 12.8665 39.9847 12.4614 39.9757C12.0564 39.9667 11.6608 39.8512 11.3146 39.6407C10.9684 39.4303 10.6837 39.1324 10.4891 38.777L8.99412 36.045C8.78518 35.6631 8.66184 35.2404 8.63266 34.8061C8.60348 34.3718 8.66915 33.9364 8.82512 33.53L12.6531 23.558Z" fill="#E07F27"/>
<path fill-rule="evenodd" clip-rule="evenodd" d="M28.8831 23.481L21.2581 35.347L29.0801 46.741L36.5071 34.611L29.0801 23.481L32.6771 33.335C32.8237 33.7362 32.883 34.1641 32.8509 34.5901C32.8188 35.0161 32.6961 35.4303 32.4911 35.805L31.0611 38.416C30.8566 38.7897 30.5586 39.1038 30.1962 39.3278C29.8338 39.5517 29.4195 39.6777 28.9939 39.6934C28.5682 39.7091 28.1457 39.614 27.7678 39.4175C27.3899 39.2209 27.0696 38.9296 26.8381 38.572L25.4121 36.372C25.1584 35.9807 24.9995 35.5356 24.948 35.0721C24.8964 34.6086 24.9536 34.1395 25.1151 33.702L28.8831 23.482V23.481Z" fill="#B76E2C"/>
<path opacity="0.608" fill-rule="evenodd" clip-rule="evenodd" d="M37.21 36.043L29.585 47.908L37.407 59.302L44.834 47.172L37.407 36.042L41.47 47.172L37.407 54.594L33.739 48.932C33.4857 48.5409 33.3269 48.0962 33.2754 47.6331C33.2238 47.17 33.2809 46.7012 33.442 46.264L37.209 36.043H37.21Z" fill="#B76E2C"/>
<path opacity="0.53" fill-rule="evenodd" clip-rule="evenodd" d="M20.456 36.043L12.832 47.908L20.654 59.302L27.939 47.672L20.654 36.042L24.35 46.33C24.5008 46.7496 24.5562 47.1976 24.5121 47.6413C24.4679 48.085 24.3255 48.5133 24.095 48.895L22.907 50.862C22.7975 51.0435 22.6855 51.2235 22.571 51.402L21.564 52.97C21.437 53.1679 21.2623 53.3309 21.056 53.4438C20.8497 53.5568 20.6183 53.6162 20.3831 53.6166C20.1479 53.617 19.9164 53.5584 19.7097 53.4461C19.503 53.3338 19.3277 53.1715 19.2 52.974L16.616 48.98C16.355 48.5762 16.1949 48.1157 16.1492 47.6371C16.1034 47.1585 16.1733 46.6759 16.353 46.23L20.455 36.044L20.456 36.043Z" fill="#D67A26"/>
<path fill-rule="evenodd" clip-rule="evenodd" d="M3.84498 36.043L-3.62402 47.635L4.49198 59.228L11.484 47.672L4.04198 36.042L8.16598 46.196C8.34667 46.6409 8.41792 47.1227 8.37372 47.6009C8.32952 48.0791 8.17117 48.5397 7.91198 48.944L4.49198 54.279L-0.168024 47.672L3.84498 36.042V36.043Z" fill="#B76E2C"/>
<path opacity="0.508" fill-rule="evenodd" clip-rule="evenodd" d="M12.3999 48.907L4.93188 60.499L13.0479 72.092L20.0389 60.536L12.5979 48.906L17.3069 60.5L13.0469 67.144L8.38688 60.537L12.3999 48.907Z" fill="#B76E2C"/>
<path opacity="0.224" fill-rule="evenodd" clip-rule="evenodd" d="M29.1541 48.907L21.6841 60.499L29.8011 72.092L36.7921 60.536L29.3511 48.906L34.0601 60.5L29.8001 67.144L25.1401 60.537L29.1541 48.907Z" fill="#B76E2C"/>
</g>
<path d="M13 36C13.5523 36 14 35.5523 14 35C14 34.4477 13.5523 34 13 34C12.4477 34 12 34.4477 12 35C12 35.5523 12.4477 36 13 36Z" fill="#B76E2C"/>
<path d="M20 48C20.5523 48 21 47.5523 21 47C21 46.4477 20.5523 46 20 46C19.4477 46 19 46.4477 19 47C19 47.5523 19.4477 48 20 48Z" fill="#B76E2C"/>
<path d="M29 37C29.5523 37 30 36.5523 30 36C30 35.4477 29.5523 35 29 35C28.4477 35 28 35.4477 28 36C28 36.5523 28.4477 37 29 37Z" fill="#B76E2C"/>
<path d="M36 48C36.5523 48 37 47.5523 37 47C37 46.4477 36.5523 46 36 46C35.4477 46 35 46.4477 35 47C35 47.5523 35.4477 48 36 48Z" fill="#B76E2C"/>
<path d="M6 49C6.55228 49 7 48.5523 7 48C7 47.4477 6.55228 47 6 47C5.44772 47 5 47.4477 5 48C5 48.5523 5.44772 49 6 49Z" fill="#B76E2C"/>
<path opacity="0.342" fill-rule="evenodd" clip-rule="evenodd" d="M5.19995 52.24C8.04895 50.493 10.278 49.58 11.889 49.5C15.655 49.315 18.219 54.221 21.096 53.98C23.156 53.806 27.011 43.975 27.011 47.56C27.011 50.953 27.215 46.017 28.622 40.72C29.052 39.1 30.0119 37.088 31.5 34.68C34.426 38.767 36.055 41.865 36.389 43.975C36.889 47.14 38.289 55.74 33.783 57.745C29.278 59.75 9.02295 59.495 7.11095 57.745C5.83695 56.578 5.19995 54.743 5.19995 52.24Z" fill="#B76E2C"/>
<path fill-rule="evenodd" clip-rule="evenodd" d="M13.872 32.005C12.095 33.415 11.075 34.8 10.811 36.16C10.557 37.468 13.644 38.22 14.433 37.665C14.899 37.337 15.706 34.707 16.855 29.775L20.345 35.335C18.897 39.634 18.123 42.425 18.022 43.71C17.859 45.795 16.828 47.515 20.65 47.515C24.472 47.515 20.105 38.625 23.528 35.815C25.809 33.942 27.47 32.672 28.511 32.005L24.85 27.68H20.983L13.872 32.005Z" fill="#FAE696" fill-opacity="0.575"/>
<path opacity="0.45" fill-rule="evenodd" clip-rule="evenodd" d="M12.6941 46.76V40.61C14.1171 39.923 15.0541 39.093 15.5051 38.12C15.9571 37.146 16.1831 35.606 16.1831 33.5L17.4941 31.79L19.6941 35.88L12.6941 46.76Z" fill="#B76E2C"/>
</g>
<path fill-rule="evenodd" clip-rule="evenodd" d="M38.96 25.716L42.177 22.5L45.393 25.716L49.772 24.378L51.1 28.726L55.57 29.514L54.774 34.03L58.353 36.826L55.548 40.416L57.407 44.592L53.247 46.445L53.01 50.971L48.423 50.731L46.088 54.617L42.176 52.267L38.264 54.617L35.93 50.73L31.343 50.97L31.106 46.445L26.946 44.592L28.806 40.417L26 36.827L29.579 34.03L28.782 29.514L33.252 28.726L34.582 24.378L38.96 25.716ZM39.785 29.096L38.802 32.314L35.554 31.321L36.144 34.669L32.836 35.253L34.921 37.922L32.259 40.002L35.337 41.372L33.957 44.47L37.357 44.291L37.533 47.642L40.44 45.896L42.177 48.787L43.914 45.896L46.821 47.642L46.997 44.292L50.397 44.47L49.017 41.371L52.095 40.001L49.433 37.921L51.518 35.253L48.209 34.669L48.799 31.321L45.552 32.314L44.569 29.096L42.177 31.488L39.785 29.096Z" fill="#AF6F47"/>
<path d="M42 53C49.732 53 56 46.732 56 39C56 31.268 49.732 25 42 25C34.268 25 28 31.268 28 39C28 46.732 34.268 53 42 53Z" fill="#FFD83A" stroke="#AF6F47"/>
<path fill-rule="evenodd" clip-rule="evenodd" d="M40.8131 33.114L42.1771 31.75L43.5411 33.114L45.3971 32.546L45.9611 34.39L47.8561 34.724L47.5181 36.638L49.0361 37.824L47.8461 39.346L48.6351 41.116L46.8711 41.902L46.7711 43.821L44.8251 43.719L43.8351 45.367L42.1771 44.37L40.5181 45.367L39.5281 43.719L37.5841 43.821L37.4841 41.901L35.7191 41.117L36.5081 39.347L35.3181 37.824L36.8361 36.638L36.4981 34.724L38.3931 34.39L38.9571 32.546L40.8131 33.114ZM41.1631 34.547L40.7461 35.911L39.3691 35.49L39.6191 36.91L38.2171 37.157L39.1011 38.288L37.9721 39.17L39.2771 39.75L38.6921 41.064L40.1341 40.989L40.2081 42.409L41.4401 41.669L42.1771 42.895L42.9141 41.669L44.1461 42.409L44.2201 40.989L45.6621 41.064L45.0771 39.751L46.3821 39.17L45.2531 38.288L46.1371 37.157L44.7341 36.91L44.9841 35.49L43.6081 35.91L43.1911 34.547L42.1771 35.561L41.1631 34.547Z" fill="#F2E9C4"/>
<path opacity="0.503" fill-rule="evenodd" clip-rule="evenodd" d="M39.6239 28.365L42.1769 25.812L44.7299 28.365L48.2049 27.302L49.2609 30.754L52.8089 31.379L52.1769 34.964L55.0169 37.184L52.7909 40.034L54.2669 43.348L50.9649 44.818L50.7759 48.411L47.1359 48.22L45.2819 51.305L42.1769 49.439L39.0719 51.305L37.2179 48.22L33.5779 48.41L33.3889 44.818L30.0869 43.348L31.5629 40.033L29.3359 37.183L32.1759 34.964L31.5449 31.379L35.0929 30.754L36.1479 27.302L39.6239 28.365ZM40.2789 31.048L39.4979 33.601L36.9199 32.813L37.3889 35.471L34.7619 35.935L36.4169 38.053L34.3039 39.703L36.7469 40.791L35.6519 43.251L38.3519 43.109L38.4909 45.769L40.7979 44.383L42.1769 46.678L43.5569 44.383L45.8629 45.769L46.0029 43.109L48.7019 43.25L47.6069 40.791L50.0499 39.704L47.9369 38.053L49.5919 35.935L46.9649 35.471L47.4339 32.813L44.8559 33.601L44.0759 31.048L42.1769 32.946L40.2789 31.048Z" fill="#F7E8AD"/>
</g>
</svg>
