<svg width="60" height="60" viewBox="0 0 60 60" fill="none" xmlns="http://www.w3.org/2000/svg">
<mask id="mask0" mask-type="alpha" maskUnits="userSpaceOnUse" x="0" y="0" width="60" height="60">
<path d="M0 0H60V60H0V0Z" fill="white"/>
</mask>
<g mask="url(#mask0)">
<path fill-rule="evenodd" clip-rule="evenodd" d="M43.4818 36.113L41.2988 39.805C43.8558 40.046 45.8088 40.531 47.1568 41.259C48.5068 41.986 49.6088 42.662 50.4648 43.285C51.0668 42.461 51.8378 41.035 52.7778 39.005C53.7178 36.977 53.9658 35.205 53.5228 33.69C51.0228 33.8 49.0118 34.144 47.4888 34.72C46.1683 35.2268 44.8319 35.6913 43.4818 36.113Z" fill="#F45D1A" stroke="#844C22" stroke-linecap="round" stroke-linejoin="round"/>
<path fill-rule="evenodd" clip-rule="evenodd" d="M43.635 33.32L42.188 36.606C45.234 35.604 47.615 34.766 49.331 34.093C51.047 33.419 52.906 33.161 54.909 33.319L52.65 27.751C50.534 27.379 48.729 28.019 47.234 29.672C45.74 31.326 44.54 32.542 43.635 33.319V33.32Z" fill="#F25C26" stroke="#844C22" stroke-linecap="round" stroke-linejoin="round"/>
<path fill-rule="evenodd" clip-rule="evenodd" d="M42.188 31.062L43.79 33.652C45.642 31.77 47.31 30.287 48.797 29.203C50.282 28.12 51.819 27.578 53.407 27.578C52.101 25.062 51.132 23.285 50.5 22.248C49.868 21.21 48.669 20.288 46.901 19.484V22.248C46.244 23.37 45.671 24.81 45.185 26.568C44.699 28.325 43.7 29.823 42.188 31.062Z" fill="#F78329" stroke="#844C22" stroke-linecap="round" stroke-linejoin="round"/>
<path fill-rule="evenodd" clip-rule="evenodd" d="M3 37.48L7.772 38.908L15.136 35.472C15.813 34.218 15.813 32.7 15.136 30.919C14.459 29.139 13.825 28.466 13.234 28.903C11.27 31.523 9.449 33.445 7.772 34.669C6.096 35.893 4.505 36.83 3 37.479V37.48Z" fill="#EE3613" stroke="#844C22" stroke-linecap="round" stroke-linejoin="round"/>
<path fill-rule="evenodd" clip-rule="evenodd" d="M10.4728 34.13C11.3808 33.835 12.1078 32.999 11.4998 31.837C10.8918 30.675 10.1218 30.98 9.21383 31.275C8.30583 31.57 7.62383 32.647 7.98183 33.512C8.33983 34.377 9.56483 34.425 10.4728 34.13Z" fill="#370506"/>
<path fill-rule="evenodd" clip-rule="evenodd" d="M13.373 28.683C17.957 25.382 21.505 23.205 24.016 22.153C26.528 21.101 29.229 20.211 32.118 19.483C33.534 20.415 34.242 21.713 34.242 23.379C34.242 25.045 33.745 26.322 32.751 27.209L34.973 28.683C34.349 31.44 32.366 33.426 29.026 34.641C25.686 35.856 21.258 36.238 15.742 35.788C16.15 34.346 16.15 33.011 15.742 31.782C15.335 30.552 14.545 29.52 13.373 28.683Z" fill="#F97924" stroke="#844C22" stroke-linecap="round" stroke-linejoin="round"/>
<path fill-rule="evenodd" clip-rule="evenodd" d="M32.6992 18.99C33.8552 18.087 34.8842 17.498 35.7852 17.223C36.6862 16.948 37.8052 16.696 39.1412 16.467C38.6372 18.307 38.8242 19.843 39.7042 21.074C40.5842 22.306 41.5012 23.328 42.4572 24.14C40.6212 25.007 39.7042 25.824 39.7042 26.59V28.832H35.7842L32.7002 27.311C34.2362 26.289 34.7912 24.801 34.3642 22.846C33.9372 20.891 33.3822 19.606 32.7002 18.99H32.6992Z" fill="#F66D19" stroke="#844C22" stroke-linecap="round" stroke-linejoin="round"/>
<path fill-rule="evenodd" clip-rule="evenodd" d="M39.0122 18.067C39.5882 17.413 40.8842 17.086 42.8992 17.086C44.9142 17.086 46.4932 17.307 47.6382 17.751L46.7862 21.818C45.6332 23.9 45.0572 25.561 45.0572 26.8C45.0572 28.039 44.1172 29.227 42.2402 30.365L40.3052 29.134C39.5712 27.779 39.5712 26.684 40.3052 25.848C41.034 25.0161 41.9143 24.3302 42.8992 23.827C41.2642 22.882 40.2072 21.969 39.7292 21.087C39.2512 20.204 39.0122 19.197 39.0122 18.067Z" fill="#F1440D" stroke="#844C22" stroke-linecap="round" stroke-linejoin="round"/>
<path fill-rule="evenodd" clip-rule="evenodd" d="M41.474 40.311C40.616 40.544 39.822 41.109 39.092 42.007C38.362 42.905 37.846 43.767 37.542 44.591C38.904 44.707 39.812 45.336 40.264 46.478C40.717 47.62 40.717 48.516 40.264 49.166C42.924 48.533 44.847 47.637 46.034 46.478C47.22 45.318 48.149 44.033 48.819 42.622C47.282 41.469 45.889 40.795 44.638 40.602C43.387 40.408 42.332 40.312 41.474 40.312V40.311Z" fill="#EC5412" stroke="#844C22" stroke-linecap="round" stroke-linejoin="round"/>
<path fill-rule="evenodd" clip-rule="evenodd" d="M22.8979 47.697C24.6699 49.536 26.4929 50.645 28.3669 51.024C30.2409 51.404 31.4909 51.404 32.1189 51.024L40.4859 48.249C40.8959 47.472 40.6309 46.653 39.6939 45.793C38.7569 44.932 37.6189 44.64 36.2809 44.916C32.8909 45.186 30.4649 45.479 29.0009 45.793C27.5359 46.106 25.5019 46.741 22.8979 47.697Z" fill="#F10B03" stroke="#844C22" stroke-linecap="round" stroke-linejoin="round"/>
<path fill-rule="evenodd" clip-rule="evenodd" d="M16.0718 28.847C19.6958 26.412 22.5918 24.767 24.7618 23.911C27.0436 23.0181 29.3712 22.2471 31.7348 21.601C32.3708 22.007 32.3708 22.924 31.7348 24.352C30.7808 26.495 27.1558 27.11 24.7618 27.465C23.1648 27.701 20.5018 28.549 16.7698 30.008L16.0718 28.847ZM34.8148 19.728L35.0448 20.638C35.1093 20.8931 35.2718 21.1124 35.497 21.2485C35.7222 21.3846 35.9919 21.4265 36.2478 21.365L37.0318 21.177C37.1644 21.1453 37.2891 21.0869 37.3982 21.0053C37.5074 20.9237 37.5988 20.8207 37.6667 20.7025C37.7345 20.5843 37.7776 20.4535 37.7931 20.318C37.8086 20.1826 37.7962 20.0455 37.7568 19.915C37.6916 19.7048 37.6579 19.4861 37.6568 19.266C37.6567 19.1327 37.6243 19.0013 37.5622 18.8833C37.5002 18.7652 37.4105 18.664 37.3007 18.5883C37.191 18.5126 37.0645 18.4646 36.9321 18.4485C36.7998 18.4325 36.6655 18.4487 36.5408 18.496C36.3008 18.586 36.0678 18.692 35.8388 18.813C35.2668 19.115 34.9258 19.42 34.8148 19.728ZM39.4988 18.367C41.1248 18.225 42.3208 18.225 43.0848 18.367C44.2308 18.579 46.0298 18.995 45.6588 19.802C45.4108 20.341 45.0438 20.677 44.5568 20.81C43.3538 20.733 42.3668 20.575 41.5988 20.335C40.8308 20.095 40.2588 20.095 39.8828 20.335L39.4988 18.367ZM47.7138 21.316L47.3618 22.732C48.2798 24.041 48.9328 25.028 49.3218 25.694C49.4228 25.868 49.5118 26.028 49.5838 26.171C49.695 26.3896 49.8827 26.5596 50.1111 26.6489C50.3396 26.7381 50.5928 26.7403 50.8228 26.655L50.8778 26.635C50.9983 26.5904 51.107 26.5188 51.1956 26.4257C51.2841 26.3325 51.3501 26.2203 51.3886 26.0977C51.427 25.9751 51.4368 25.8453 51.4173 25.7183C51.3977 25.5912 51.3493 25.4704 51.2758 25.365L49.8598 23.331C49.2148 22.406 48.4998 21.734 47.7138 21.316ZM50.6788 28.771L52.0068 31.659C52.1568 31.987 52.4858 32.197 52.8468 32.197C52.9157 32.197 52.9838 32.181 53.0454 32.1501C53.1071 32.1192 53.1607 32.0744 53.202 32.0191C53.2433 31.9638 53.2711 31.8997 53.2832 31.8318C53.2953 31.7639 53.2914 31.6941 53.2718 31.628L52.2538 28.162L50.6788 28.772V28.771ZM51.2918 34.61C51.3398 35.93 51.1738 36.934 50.7938 37.623C50.2238 38.657 49.5458 39.574 49.5458 40.044C49.5458 40.514 49.8978 40.724 50.7938 40.724C51.6908 40.724 52.5098 38.372 52.8628 36.944C53.0968 35.992 53.0968 35.107 52.8628 34.29L51.2928 34.61H51.2918ZM46.8108 42.21C45.0228 43.607 44.1278 44.58 44.1278 45.125C44.1278 45.671 44.5758 45.944 45.4698 45.944C46.4498 45.204 47.0608 44.582 47.3038 44.077C47.5478 43.572 47.7888 43.117 48.0278 42.71L46.8108 42.21Z" fill="#FFC59F"/>
<path fill-rule="evenodd" clip-rule="evenodd" d="M24.2588 48.098C26.9868 49.758 29.0988 50.312 30.5988 49.758C32.0968 49.205 35.2578 48.498 40.0818 47.639L39.7488 46.803L39.2358 46.385C34.3858 47.475 31.4068 48.046 30.2968 48.098C29.1868 48.15 27.1748 48.15 24.2588 48.098Z" fill="#FF8F8C"/>
<path fill-rule="evenodd" clip-rule="evenodd" d="M9.07702 32.328C8.76302 32.521 8.65802 32.769 8.76302 33.071C8.92002 33.524 10.133 33.671 10.133 32.927C10.133 32.431 9.78102 32.231 9.07702 32.327V32.328Z" fill="#B49091"/>
<path fill-rule="evenodd" clip-rule="evenodd" d="M16.9719 36.293C15.2299 37.703 14.3589 39.205 14.3589 40.799C14.3589 42.392 14.7949 43.888 15.6659 45.286C15.7429 42.46 16.1779 40.541 16.9719 39.53C17.7659 38.518 18.7599 37.44 19.9559 36.293H16.9719Z" fill="#F97924" stroke="#844C22" stroke-linecap="round" stroke-linejoin="round"/>
<path fill-rule="evenodd" clip-rule="evenodd" d="M22.1589 36.305C20.0409 37.425 19.1819 38.822 19.5839 40.495C20.1859 43.003 22.3079 45.02 22.7299 44.562C23.1529 44.103 21.7969 42.643 21.7969 40.495C21.7969 39.062 22.5669 37.665 24.1049 36.305H22.1599H22.1589ZM25.4879 36.13C24.9929 37.68 25.2879 38.957 26.3719 39.963C27.1639 40.698 32.1179 42.371 31.6349 41.473C31.1529 40.574 29.5969 39.859 28.4449 38.802C27.6779 38.097 27.6779 36.986 28.4449 35.469L25.4879 36.131V36.13Z" fill="#F97924" stroke="#844C22"/>
</g>
</svg>
