<svg width="60" height="60" viewBox="0 0 60 60" fill="none" xmlns="http://www.w3.org/2000/svg">
<mask id="mask0" mask-type="alpha" maskUnits="userSpaceOnUse" x="0" y="0" width="60" height="60">
<path d="M0 0H60V60H0V0Z" fill="white"/>
</mask>
<g mask="url(#mask0)">
<path d="M27.8397 48.7261C33.1061 52.1461 41.7753 48.1434 47.2029 39.7857C52.6304 31.4279 52.7611 21.8802 47.4947 18.4601C42.2283 15.0401 33.5591 19.0429 28.1315 27.4006C22.704 35.7583 22.5733 45.306 27.8397 48.7261Z" fill="#DB5952" stroke="#844C22" stroke-width="1.103"/>
<path opacity="0.767" d="M41.9545 23.0158C42.4177 23.3166 43.037 23.185 43.3378 22.7218C43.6386 22.2586 43.5069 21.6393 43.0437 21.3385C42.5806 21.0377 41.9612 21.1693 41.6604 21.6325C41.3596 22.0957 41.4913 22.715 41.9545 23.0158Z" fill="#FEFEFE"/>
<path opacity="0.767" d="M37.6271 24.7078C38.1287 25.0335 38.7941 24.8992 39.1132 24.4078C39.4324 23.9163 39.2844 23.2539 38.7828 22.9281C38.2812 22.6023 37.6158 22.7366 37.2966 23.2281C36.9775 23.7195 37.1254 24.382 37.6271 24.7078Z" fill="#FEFEFE"/>
<path opacity="0.767" d="M42.9447 27.4551C43.4079 27.7559 44.0272 27.6243 44.328 27.1611C44.6288 26.6979 44.4972 26.0786 44.034 25.7778C43.5708 25.477 42.9515 25.6086 42.6507 26.0718C42.3499 26.535 42.4815 27.1543 42.9447 27.4551Z" fill="#FEFEFE"/>
<path opacity="0.767" d="M37.1315 29.4476C37.6331 29.7734 38.2985 29.6391 38.6176 29.1476C38.9367 28.6562 38.7888 27.9937 38.2872 27.668C37.7856 27.3422 37.1202 27.4765 36.801 27.9679C36.4819 28.4594 36.6298 29.1219 37.1315 29.4476Z" fill="#FEFEFE"/>
<path opacity="0.767" d="M45.9669 23.796C46.4685 24.1218 47.1339 23.9875 47.4531 23.496C47.7722 23.0046 47.6243 22.3421 47.1226 22.0163C46.621 21.6906 45.9556 21.8249 45.6365 22.3163C45.3173 22.8078 45.4653 23.4702 45.9669 23.796Z" fill="#FEFEFE"/>
<path opacity="0.767" d="M44.6451 31.7955C45.1468 32.1212 45.8121 31.9869 46.1313 31.4955C46.4504 31.004 46.3025 30.3416 45.8009 30.0158C45.2992 29.69 44.6339 29.8244 44.3147 30.3158C43.9956 30.8072 44.1435 31.4697 44.6451 31.7955Z" fill="#FEFEFE"/>
<path opacity="0.767" d="M38.4523 35.368C38.9539 35.6937 39.6193 35.5594 39.9384 35.068C40.2575 34.5766 40.1096 33.9141 39.608 33.5883C39.1064 33.2626 38.441 33.3969 38.1218 33.8883C37.8027 34.3797 37.9506 35.0422 38.4523 35.368Z" fill="#FEFEFE"/>
<path opacity="0.767" d="M32.0453 34.2979C32.5085 34.5987 33.1278 34.4671 33.4286 34.0039C33.7294 33.5407 33.5978 32.9214 33.1346 32.6206C32.6714 32.3198 32.0521 32.4514 31.7513 32.9146C31.4505 33.3778 31.5821 33.9971 32.0453 34.2979Z" fill="#FEFEFE"/>
<path opacity="0.767" d="M36.7994 41.8878C37.3011 42.2135 37.9664 42.0792 38.2856 41.5878C38.6047 41.0964 38.4568 40.4339 37.9552 40.1081C37.4535 39.7824 36.7882 39.9167 36.469 40.4081C36.1499 40.8995 36.2978 41.562 36.7994 41.8878Z" fill="#FEFEFE"/>
<path opacity="0.489" fill-rule="evenodd" clip-rule="evenodd" d="M25.1187 44.4147C25.1571 41.1296 25.4378 38.6648 25.9616 37.0209C27.6026 31.8684 30.8587 27.1245 33.1347 24.6057C38.1818 19.0205 43.449 17.8576 47.0225 20.1783C49.4438 21.7507 50.4046 25.8766 49.9073 32.5564C51.6023 25.8317 50.8903 21.3189 47.7741 19.0209C43.0994 15.5738 37.2271 18.3039 32.4235 23.1817C26.8746 28.28 24.9599 35.1613 24.5582 38.4311C24.2899 40.6105 24.4776 42.6056 25.1196 44.4152L25.1187 44.4147Z" fill="white"/>
<path d="M26.9559 49.1873C32.961 51.0233 40.191 44.786 43.1046 35.256C46.0182 25.7261 43.5121 16.5122 37.507 14.6762C31.5019 12.8403 24.2718 19.0775 21.3582 28.6075C18.4446 38.1375 20.9508 47.3514 26.9559 49.1873Z" fill="#DB5952" stroke="#844C22" stroke-width="1.103"/>
<path opacity="0.767" d="M33.4375 20.5824C33.9656 20.7439 34.5247 20.4467 34.6862 19.9185C34.8476 19.3904 34.5504 18.8313 34.0222 18.6698C33.4941 18.5084 32.935 18.8056 32.7735 19.3338C32.6121 19.8619 32.9093 20.421 33.4375 20.5824Z" fill="#FEFEFE"/>
<path opacity="0.767" d="M29.7439 23.4017C30.3159 23.5766 30.9184 23.2641 31.0898 22.7037C31.2611 22.1433 30.9363 21.5473 30.3643 21.3724C29.7923 21.1976 29.1897 21.5101 29.0184 22.0704C28.8471 22.6308 29.1719 23.2268 29.7439 23.4017Z" fill="#FEFEFE"/>
<path opacity="0.767" d="M35.6123 24.5769C36.1404 24.7384 36.6995 24.4411 36.861 23.913C37.0224 23.3848 36.7252 22.8258 36.197 22.6643C35.6689 22.5028 35.1098 22.8001 34.9484 23.3283C34.7869 23.8564 35.0841 24.4155 35.6123 24.5769Z" fill="#FEFEFE"/>
<path opacity="0.767" d="M30.574 28.0945C31.1459 28.2694 31.7485 27.9569 31.9198 27.3965C32.0912 26.8361 31.7664 26.2401 31.1944 26.0652C30.6224 25.8903 30.0198 26.2029 29.8485 26.7632C29.6772 27.3236 30.002 27.9196 30.574 28.0945Z" fill="#FEFEFE"/>
<path opacity="0.767" d="M37.5095 20.2264C38.0815 20.4013 38.6841 20.0888 38.8554 19.5284C39.0267 18.9681 38.7019 18.372 38.1299 18.1971C37.5579 18.0223 36.9554 18.3348 36.784 18.8951C36.6127 19.4555 36.9375 20.0516 37.5095 20.2264Z" fill="#FEFEFE"/>
<path opacity="0.767" d="M38.4436 28.2804C39.0156 28.4553 39.6181 28.1428 39.7895 27.5824C39.9608 27.0221 39.636 26.426 39.064 26.2512C38.492 26.0763 37.8894 26.3888 37.7181 26.9492C37.5468 27.5095 37.8716 28.1056 38.4436 28.2804Z" fill="#FEFEFE"/>
<path opacity="0.767" d="M33.4753 33.4215C34.0473 33.5964 34.6499 33.2839 34.8212 32.7235C34.9925 32.1631 34.6677 31.5671 34.0957 31.3922C33.5237 31.2174 32.9212 31.5299 32.7499 32.0902C32.5785 32.6506 32.9033 33.2466 33.4753 33.4215Z" fill="#FEFEFE"/>
<path opacity="0.767" d="M27.0215 34.1589C27.5496 34.3204 28.1087 34.0231 28.2701 33.495C28.4316 32.9668 28.1344 32.4078 27.6062 32.2463C27.0781 32.0848 26.519 32.3821 26.3575 32.9102C26.1961 33.4384 26.4933 33.9974 27.0215 34.1589Z" fill="#FEFEFE"/>
<path opacity="0.767" d="M33.6838 40.1442C34.2558 40.3191 34.8584 40.0066 35.0297 39.4462C35.201 38.8859 34.8762 38.2898 34.3042 38.115C33.7322 37.9401 33.1297 38.2526 32.9583 38.813C32.787 39.3733 33.1118 39.9694 33.6838 40.1442Z" fill="#FEFEFE"/>
<path opacity="0.489" fill-rule="evenodd" clip-rule="evenodd" d="M23.1519 45.7929C22.2833 42.6245 21.8737 40.1778 21.9242 38.4532C22.0814 33.048 23.9037 27.5903 25.3972 24.5418C28.7094 17.7818 33.4519 15.2121 37.5267 16.4579C40.2876 17.302 42.3485 21.0033 43.7117 27.5614C43.4874 20.6299 41.5591 16.4882 37.9302 15.1382C32.4864 13.1131 27.5941 17.3561 24.3211 23.3689C20.3924 29.7993 20.4486 36.9418 20.9638 40.1956C21.3066 42.3646 22.0369 44.2307 23.1529 45.7932L23.1519 45.7929Z" fill="white"/>
<path d="M25.8515 48.2897C32.1223 48.6184 37.6287 40.8173 38.1502 30.8655C38.6718 20.9138 34.011 12.5798 27.7402 12.2512C21.4693 11.9225 15.9629 19.7236 15.4414 29.6754C14.9198 39.6272 19.5806 47.9611 25.8515 48.2897Z" fill="#DB5952" stroke="#844C22" stroke-width="1.103"/>
<path opacity="0.767" d="M25.2201 18.9665C25.7717 18.9954 26.2422 18.5717 26.2711 18.0202C26.3 17.4687 25.8763 16.9982 25.3248 16.9693C24.7733 16.9403 24.3027 17.364 24.2738 17.9155C24.2449 18.4671 24.6686 18.9376 25.2201 18.9665Z" fill="#FEFEFE"/>
<path opacity="0.767" d="M22.3181 22.5956C22.9154 22.6269 23.4245 22.1779 23.4552 21.5927C23.4858 21.0076 23.0265 20.5078 22.4292 20.4765C21.8319 20.4452 21.3228 20.8942 21.2921 21.4794C21.2615 22.0645 21.7208 22.5643 22.3181 22.5956Z" fill="#FEFEFE"/>
<path opacity="0.767" d="M28.2973 22.3161C28.8488 22.345 29.3193 21.9214 29.3482 21.3698C29.3771 20.8183 28.9535 20.3478 28.4019 20.3189C27.8504 20.29 27.3799 20.7136 27.351 21.2652C27.3221 21.8167 27.7458 22.2872 28.2973 22.3161Z" fill="#FEFEFE"/>
<path opacity="0.767" d="M24.259 26.9482C24.8563 26.9795 25.3654 26.5305 25.3961 25.9453C25.4267 25.3601 24.9674 24.8604 24.3701 24.8291C23.7728 24.7978 23.2637 25.2468 23.233 25.8319C23.2024 26.4171 23.6617 26.9169 24.259 26.9482Z" fill="#FEFEFE"/>
<path opacity="0.767" d="M29.0852 17.636C29.6825 17.6673 30.1916 17.2183 30.2222 16.6331C30.2529 16.0479 29.7936 15.5482 29.1963 15.5169C28.599 15.4856 28.0899 15.9346 28.0592 16.5197C28.0286 17.1049 28.4879 17.6047 29.0852 17.636Z" fill="#FEFEFE"/>
<path opacity="0.767" d="M31.9397 25.2248C32.537 25.2561 33.0461 24.8071 33.0767 24.2219C33.1074 23.6367 32.6481 23.137 32.0508 23.1057C31.4534 23.0744 30.9444 23.5234 30.9137 24.1085C30.883 24.6937 31.3424 25.1935 31.9397 25.2248Z" fill="#FEFEFE"/>
<path opacity="0.767" d="M28.363 31.415C28.9603 31.4463 29.4694 30.9974 29.5001 30.4122C29.5307 29.827 29.0714 29.3273 28.4741 29.296C27.8768 29.2646 27.3677 29.7136 27.337 30.2988C27.3064 30.884 27.7657 31.3837 28.363 31.415Z" fill="#FEFEFE"/>
<path opacity="0.767" d="M22.2797 33.6918C22.8312 33.7207 23.3018 33.297 23.3307 32.7455C23.3596 32.194 22.9359 31.7234 22.3844 31.6945C21.8328 31.6656 21.3623 32.0893 21.3334 32.6408C21.3045 33.1924 21.7282 33.6629 22.2797 33.6918Z" fill="#FEFEFE"/>
<path opacity="0.767" d="M30.1917 37.8876C30.789 37.9189 31.298 37.4699 31.3287 36.8848C31.3594 36.2996 30.9 35.7998 30.3027 35.7685C29.7054 35.7372 29.1963 36.1862 29.1657 36.7714C29.135 37.3566 29.5943 37.8563 30.1917 37.8876Z" fill="#FEFEFE"/>
<path opacity="0.489" fill-rule="evenodd" clip-rule="evenodd" d="M21.3394 45.9163C19.7301 43.0522 18.7408 40.7773 18.3725 39.0917C17.2174 33.809 17.6652 28.0726 18.3769 24.7533C19.9553 17.3928 23.9353 13.7521 28.1904 13.9751C31.0735 14.1262 33.9686 17.219 36.8778 23.2525C34.9833 16.5812 32.1103 13.029 28.2626 12.597C22.4906 11.949 18.7701 17.2496 17.049 23.8756C14.7926 31.0654 16.5751 37.9821 17.8621 41.0146C18.7195 43.0363 19.8796 44.6702 21.3404 45.9164L21.3394 45.9163Z" fill="white"/>
<path d="M25.9468 49.0057C31.9189 47.0653 34.2639 37.809 31.1844 28.3313C28.1049 18.8537 20.7671 12.7435 14.795 14.684C8.82282 16.6245 6.47786 25.8807 9.55735 35.3584C12.6368 44.8361 19.9746 50.9462 25.9468 49.0057Z" fill="#DB5952" stroke="#844C22" stroke-width="1.103"/>
<path opacity="0.767" d="M14.8489 21.8563C15.3741 21.6857 15.6616 21.1215 15.4909 20.5963C15.3202 20.071 14.7561 19.7836 14.2308 19.9542C13.7056 20.1249 13.4181 20.689 13.5888 21.2143C13.7595 21.7396 14.3236 22.027 14.8489 21.8563Z" fill="#FEFEFE"/>
<path opacity="0.767" d="M13.4401 26.2844C14.009 26.0995 14.3233 25.4979 14.1423 24.9406C13.9612 24.3833 13.3532 24.0814 12.7844 24.2662C12.2155 24.451 11.9012 25.0527 12.0823 25.6099C12.2633 26.1672 12.8713 26.4692 13.4401 26.2844Z" fill="#FEFEFE"/>
<path opacity="0.767" d="M18.9221 23.8808C19.4474 23.7102 19.7348 23.146 19.5642 22.6208C19.3935 22.0955 18.8293 21.8081 18.3041 21.9787C17.7788 22.1494 17.4914 22.7135 17.662 23.2388C17.8327 23.764 18.3969 24.0515 18.9221 23.8808Z" fill="#FEFEFE"/>
<path opacity="0.767" d="M16.8122 29.6523C17.381 29.4674 17.6954 28.8658 17.5143 28.3085C17.3332 27.7512 16.7253 27.4493 16.1565 27.6341C15.5876 27.8189 15.2733 28.4206 15.4543 28.9779C15.6354 29.5351 16.2433 29.8371 16.8122 29.6523Z" fill="#FEFEFE"/>
<path opacity="0.767" d="M17.9802 19.2291C18.549 19.0443 18.8634 18.4427 18.6823 17.8854C18.5012 17.3281 17.8933 17.0261 17.3244 17.211C16.7556 17.3958 16.4412 17.9974 16.6223 18.5547C16.8034 19.112 17.4113 19.4139 17.9802 19.2291Z" fill="#FEFEFE"/>
<path opacity="0.767" d="M23.3649 25.2908C23.9338 25.106 24.2481 24.5044 24.0671 23.9471C23.886 23.3898 23.278 23.0878 22.7092 23.2727C22.1403 23.4575 21.826 24.0591 22.0071 24.6164C22.1881 25.1737 22.7961 25.4757 23.3649 25.2908Z" fill="#FEFEFE"/>
<path opacity="0.767" d="M22.2443 32.3518C22.8132 32.167 23.1275 31.5653 22.9464 31.008C22.7654 30.4508 22.1574 30.1488 21.5886 30.3336C21.0197 30.5185 20.7054 31.1201 20.8865 31.6774C21.0675 32.2347 21.6755 32.5366 22.2443 32.3518Z" fill="#FEFEFE"/>
<path opacity="0.767" d="M17.3806 36.6574C17.9059 36.4868 18.1933 35.9226 18.0227 35.3974C17.852 34.8721 17.2878 34.5846 16.7626 34.7553C16.2373 34.926 15.9499 35.4901 16.1205 36.0154C16.2912 36.5406 16.8554 36.8281 17.3806 36.6574Z" fill="#FEFEFE"/>
<path opacity="0.767" d="M26.2712 37.7391C26.84 37.5543 27.1544 36.9527 26.9733 36.3954C26.7922 35.8381 26.1843 35.5361 25.6154 35.721C25.0466 35.9058 24.7322 36.5074 24.9133 37.0647C25.0944 37.622 25.7023 37.9239 26.2712 37.7391Z" fill="#FEFEFE"/>
<path opacity="0.489" fill-rule="evenodd" clip-rule="evenodd" d="M20.884 48.4069C18.3551 46.3097 16.6163 44.5405 15.6684 43.0988C12.6969 38.581 11.0592 33.0651 10.5341 29.7112C9.36988 22.2739 11.7808 17.4488 15.8333 16.132C18.579 15.2399 22.3901 17.0897 27.2683 21.6799C23.1089 16.1307 19.1537 13.844 15.4068 14.8196C9.78599 16.2831 8.21214 22.5649 8.97987 29.3676C9.44994 36.8885 13.5927 42.7071 15.8811 45.0769C17.406 46.657 19.0746 47.7667 20.8849 48.4066L20.884 48.4069Z" fill="white"/>
</g>
</svg>
