<svg width="60" height="60" viewBox="0 0 60 60" fill="none" xmlns="http://www.w3.org/2000/svg">
<mask id="mask0" mask-type="alpha" maskUnits="userSpaceOnUse" x="0" y="0" width="60" height="60">
<path d="M0 0H60V60H0V0Z" fill="white"/>
</mask>
<g mask="url(#mask0)">
<path d="M38.3824 42.5307C43.9868 45.026 50.3799 42.8941 52.6617 37.769C54.9436 32.6439 52.2501 26.4664 46.6457 23.9712C41.0413 21.4759 34.6483 23.6078 32.3664 28.7329C30.0846 33.858 32.778 40.0355 38.3824 42.5307Z" fill="#FF5151" stroke="#503117"/>
<path fill-rule="evenodd" clip-rule="evenodd" d="M33.1696 36.1684C36.8562 38.5585 40.9336 39.1096 45.4036 37.8224C49.8732 36.5361 52.3104 34.4501 52.7135 31.5679C54.0587 37.2941 51.6226 41.0127 45.4066 42.7255C38.9892 43.3416 34.9106 41.1557 33.17 36.1675L33.1696 36.1684Z" fill="#DF3C3C"/>
<path fill-rule="evenodd" clip-rule="evenodd" d="M44.1828 22.5232C43.5017 21.6288 42.5507 21.2054 41.3326 21.2542C40.1135 21.3025 39.3157 21.7497 38.9394 22.5947C40.5519 22.415 41.5991 22.6568 42.0791 23.3194C42.5591 23.9819 42.9618 24.3855 43.2888 24.5312C42.7679 24.8235 42.5112 25.4 42.5193 26.2596C42.5282 27.1196 42.7968 27.6671 43.3257 27.9026C44.3594 27.5134 45.0061 27.0296 45.2639 26.4504C45.5214 25.8722 45.4759 25.0057 45.1292 23.852C47.1394 23.7476 47.958 24.112 47.5866 24.9461C47.2153 25.7802 47.8422 26.334 49.4651 26.6078C49.4859 25.6991 49.3396 24.7943 49.0335 23.9385C48.7344 23.1179 47.6373 22.6294 45.7429 22.4734L46.713 20.2946L45.4295 19.7232L44.1828 22.5232Z" fill="#92C28F" stroke="#503117"/>
<mask id="mask1" mask-type="alpha" maskUnits="userSpaceOnUse" x="-1" y="2" width="36" height="33">
<path d="M-0.919898 7.46601L5.3461 32.024C10.7141 34.053 16.5011 34.56 22.7061 33.546C28.9111 32.531 32.9021 29.755 34.6791 25.217V2.04201L-0.920898 7.46601H-0.919898Z" fill="white"/>
</mask>
<g mask="url(#mask1)">
<path d="M20.0002 41.387C27.6217 41.387 33.8002 35.5277 33.8002 28.3C33.8002 21.0722 27.6217 15.213 20.0002 15.213C12.3787 15.213 6.2002 21.0722 6.2002 28.3C6.2002 35.5277 12.3787 41.387 20.0002 41.387Z" fill="#E72B2B" stroke="#503117"/>
<path fill-rule="evenodd" clip-rule="evenodd" d="M9.1333 35.468C15.0443 37.408 20.2133 36.466 24.6393 32.642C29.0663 28.819 30.3693 24.146 28.5493 18.624C30.0953 20.081 31.1333 21.286 31.6623 22.24C34.5623 27.472 33.4823 33.257 28.0133 38.17C21.0353 42.222 14.7423 41.322 9.1333 35.468Z" fill="#C31616"/>
<path fill-rule="evenodd" clip-rule="evenodd" d="M17.3402 15.046C16.1132 14.356 14.8202 14.356 13.4602 15.046C12.1002 15.736 11.4202 16.672 11.4202 17.854C13.1622 16.807 14.4732 16.544 15.3532 17.069C16.2332 17.592 16.8952 17.854 17.3402 17.854C16.8952 18.465 16.8952 19.27 17.3402 20.269C17.7842 21.269 18.3672 21.769 19.0872 21.769C20.0642 20.777 20.5532 19.877 20.5532 19.068C20.5532 18.258 20.0642 17.271 19.0872 16.105C21.3172 14.94 22.4332 14.94 22.4332 16.105C22.4332 17.271 23.6652 17.461 26.1302 16.674C25.1252 15.348 24.2442 14.285 23.4882 13.484C22.7322 12.683 21.2652 12.914 19.0872 14.178V11.132H17.3402V15.046Z" fill="#92C28F" stroke="#503117"/>
</g>
<mask id="mask2" mask-type="alpha" maskUnits="userSpaceOnUse" x="8" y="35" width="41" height="28">
<path d="M11.4391 62.627L8.43506 42.694C13.1371 44.06 18.2571 43.904 23.7951 42.227C29.3331 40.55 33.3821 38.354 35.9431 35.641L48.3761 54.296L11.4391 62.626V62.627Z" fill="white"/>
</mask>
<g mask="url(#mask2)">
<path fill-rule="evenodd" clip-rule="evenodd" d="M21.5499 51.308C28.9689 51.308 35.4469 45.396 35.4469 38.386C35.4469 31.376 28.9689 25.923 21.5499 25.923C14.1299 25.924 8.11694 31.606 8.11694 38.616C8.11694 45.626 14.1299 51.308 21.5499 51.308Z" fill="#E72B2B" stroke="#503117"/>
<path fill-rule="evenodd" clip-rule="evenodd" d="M12.064 46.858C17.09 47.878 21.757 46.534 26.066 42.826C30.375 39.118 32.566 35.071 32.639 30.683C36.464 37.863 35.387 43.745 29.407 48.332C23.164 52.065 17.383 51.573 12.064 46.858Z" fill="#C31616"/>
</g>
<path fill-rule="evenodd" clip-rule="evenodd" d="M9.02501 43.057C9.71501 44.768 17.643 45.18 24.599 43.057C31.555 40.934 35.191 38.027 35.191 36.203C35.191 34.38 29.168 34.196 20.966 36.203C12.764 38.21 8.33501 41.346 9.02501 43.057Z" fill="#FF5C5C" stroke="#52341B"/>
<path d="M6.59814 31.903C11.1201 34.138 16.2961 34.64 22.1241 33.409C27.9521 32.177 31.9101 29.708 34.0001 26" stroke="#52341B"/>
<path fill-rule="evenodd" clip-rule="evenodd" d="M17.997 39C14.666 40.224 13 41.052 13 41.484C13 42.132 14.7 43 16.292 43C17.885 43 19.772 41.495 21.258 41.495C22.248 41.495 22.248 40.993 21.258 39.99L19.054 41.251C18.9269 41.3239 18.7853 41.3679 18.6393 41.38C18.4933 41.3921 18.3464 41.3719 18.209 41.321L17.587 41.089C17.5109 41.0604 17.4455 41.0089 17.3999 40.9415C17.3544 40.8741 17.3309 40.7943 17.3328 40.713C17.3346 40.6317 17.3617 40.5529 17.4103 40.4877C17.4589 40.4225 17.5266 40.374 17.604 40.349L19.259 39.818C19.2904 39.7247 19.2992 39.6253 19.2846 39.5279C19.27 39.4305 19.2324 39.3381 19.1749 39.2581C19.1174 39.1782 19.0418 39.1131 18.9541 39.0682C18.8665 39.0233 18.7695 38.9999 18.671 39H17.997ZM21.77 38H18C21.3 36.667 23.347 36 24.143 36H27L24.143 38L22.5 37L21.77 38ZM26 38.37L28.159 36H31.075C32 37.58 32.231 38.37 31.769 38.37C31.306 38.37 30.103 38.914 28.159 40V38.37H26Z" fill="#C31616"/>
<path fill-rule="evenodd" clip-rule="evenodd" d="M23 39.94V42C24.411 41.313 25.493 40.97 26.247 40.97C27 40.97 27.917 40.626 29 39.94L26 39L24.892 39.94H23Z" fill="#C31616"/>
</g>
</svg>
